<svg width="1128" height="449" viewBox="0 0 1128 449" fill="none" xmlns="http://www.w3.org/2000/svg">
<g filter="url(#filter0_d_281_2)">
<path d="M140.799 224.389C140.799 163.907 134.996 114.877 127.838 114.877C120.679 114.877 114.876 163.907 114.876 224.389C114.876 284.872 120.68 333.902 127.838 333.902C134.996 333.902 140.799 284.872 140.799 224.389Z" fill="url(#paint0_linear_281_2)"/>
<path d="M127.838 332.954C127.996 332.954 128.228 332.89 128.546 332.617C128.871 332.338 129.237 331.881 129.629 331.203C130.414 329.846 131.203 327.784 131.97 325.041C133.501 319.569 134.891 311.607 136.062 301.715C138.402 281.945 139.852 254.605 139.852 224.389C139.852 194.174 138.402 166.835 136.062 147.064C134.891 137.172 133.501 129.209 131.97 123.738C131.203 120.995 130.414 118.932 129.629 117.576C129.237 116.898 128.871 116.441 128.546 116.162C128.228 115.889 127.996 115.825 127.838 115.825C127.68 115.825 127.449 115.889 127.13 116.162C126.805 116.441 126.439 116.898 126.046 117.576C125.262 118.932 124.473 120.995 123.706 123.738C122.174 129.209 120.784 137.172 119.614 147.064C117.274 166.835 115.825 194.174 115.825 224.389C115.825 254.605 117.274 281.945 119.614 301.715C120.785 311.607 122.175 319.569 123.706 325.041C124.473 327.784 125.262 329.846 126.046 331.203C126.439 331.881 126.805 332.338 127.13 332.617C127.449 332.89 127.68 332.954 127.838 332.954Z" stroke="url(#paint1_linear_281_2)" style="mix-blend-mode:plus-lighter" stroke-width="1.89561"/>
</g>
<g filter="url(#filter1_d_281_2)">
<path d="M481.077 170.685C481.077 170.685 493.795 180.003 493.795 224.375C493.795 268.747 481.077 277.621 481.077 277.621L377.186 290.566C377.886 289.569 378.5 288.427 379.046 287.202C380.654 283.595 382.054 278.503 383.213 272.357C385.538 260.028 386.965 243.065 386.965 224.375C386.965 205.685 385.538 188.722 383.213 176.393C382.054 170.247 380.654 165.155 379.046 161.548C378.408 160.118 377.686 158.8 376.833 157.695L481.077 170.685Z" fill="url(#paint2_linear_281_2)"/>
<path d="M480.683 171.59C480.755 171.653 480.848 171.739 480.959 171.849C481.274 172.158 481.741 172.661 482.31 173.408C483.447 174.903 484.997 177.379 486.557 181.245C489.679 188.98 492.847 202.275 492.847 224.375C492.847 246.475 489.679 259.657 486.559 267.278C485 271.087 483.452 273.506 482.318 274.957C481.751 275.683 481.285 276.168 480.972 276.465C480.86 276.571 480.765 276.652 480.694 276.713L379.028 289.382C379.343 288.805 379.637 288.204 379.912 287.588C381.563 283.883 382.98 278.708 384.144 272.533C386.483 260.13 387.913 243.105 387.913 224.375C387.913 205.645 386.483 188.62 384.144 176.217C382.98 170.042 381.563 164.867 379.912 161.162C379.561 160.375 379.179 159.612 378.761 158.891L480.683 171.59Z" stroke="url(#paint3_linear_281_2)" style="mix-blend-mode:plus-lighter" stroke-width="1.89561"/>
</g>
<g filter="url(#filter2_d_281_2)">
<path d="M388.526 224.391C388.526 261.226 382.689 291.087 375.489 291.087C368.289 291.087 362.452 261.226 362.452 224.391C362.452 187.556 368.289 157.695 375.489 157.695C382.689 157.695 388.526 187.556 388.526 224.391Z" fill="url(#paint4_linear_281_2)"/>
<path d="M375.489 158.644C376.036 158.644 376.684 158.923 377.431 159.705C378.179 160.488 378.946 161.694 379.704 163.334C381.217 166.609 382.604 171.408 383.778 177.412C386.122 189.406 387.579 206.016 387.579 224.392C387.579 242.767 386.122 259.377 383.778 271.37C382.604 277.375 381.217 282.174 379.704 285.448C378.946 287.088 378.179 288.294 377.431 289.077C376.684 289.859 376.036 290.14 375.489 290.14C374.942 290.14 374.294 289.859 373.546 289.077C372.799 288.294 372.033 287.088 371.275 285.448C369.762 282.174 368.374 277.375 367.201 271.37C364.856 259.377 363.4 242.767 363.4 224.392C363.4 206.016 364.856 189.406 367.201 177.412C368.374 171.408 369.762 166.609 371.275 163.334C372.033 161.694 372.799 160.488 373.546 159.705C374.294 158.923 374.942 158.644 375.489 158.644Z" stroke="url(#paint5_linear_281_2)" style="mix-blend-mode:plus-lighter" stroke-width="1.89561"/>
</g>
<g filter="url(#filter3_d_281_2)">
<path d="M628.344 171.763C627.49 172.626 626.765 173.654 626.126 174.771C624.516 177.587 623.114 181.563 621.953 186.361C619.624 195.987 618.194 209.231 618.194 223.823C618.194 238.414 619.624 251.658 621.953 261.285C623.114 266.083 624.516 270.058 626.126 272.875C626.674 273.831 627.289 274.722 627.99 275.5L564.17 269.303L500.352 275.5C501.052 274.722 501.667 273.831 502.214 272.875C503.825 270.058 505.227 266.083 506.388 261.285C508.717 251.658 510.147 238.414 510.147 223.823C510.147 209.231 508.717 195.987 506.388 186.361C505.227 181.563 503.825 177.587 502.214 174.771C501.576 173.655 500.852 172.626 499.998 171.763L564.17 177.995L628.344 171.763Z" fill="url(#paint6_linear_281_2)"/>
</g>
<g filter="url(#filter4_d_281_2)">
<path d="M615.679 224.39C615.679 253.456 621.516 277.018 628.716 277.018C635.916 277.018 641.753 253.456 641.753 224.39C641.753 195.325 635.916 171.763 628.716 171.763C621.516 171.763 615.679 195.325 615.679 224.39Z" fill="url(#paint7_linear_281_2)"/>
<path d="M628.716 172.711C627.463 172.711 625.992 173.761 624.459 176.377C622.965 178.928 621.587 182.683 620.417 187.405C618.082 196.834 616.626 209.911 616.626 224.39C616.626 238.869 618.082 251.946 620.417 261.375C621.587 266.098 622.965 269.852 624.459 272.403C625.992 275.02 627.462 276.07 628.716 276.07C629.97 276.07 631.441 275.02 632.973 272.403C634.467 269.852 635.845 266.097 637.015 261.375C639.351 251.946 640.805 238.869 640.805 224.39C640.805 209.911 639.351 196.834 637.015 187.405C635.845 182.683 634.467 178.928 632.973 176.377C631.441 173.761 629.97 172.711 628.716 172.711Z" stroke="url(#paint8_linear_281_2)" style="mix-blend-mode:plus-lighter" stroke-width="1.89561"/>
</g>
<g filter="url(#filter5_d_281_2)">
<path d="M512.126 224.391C512.126 195.326 506.289 171.764 499.089 171.764C491.889 171.764 486.052 195.326 486.052 224.391C486.052 253.456 491.889 277.018 499.089 277.018C506.289 277.018 512.126 253.456 512.126 224.391Z" fill="url(#paint9_linear_281_2)"/>
<path d="M499.089 276.07C500.343 276.07 501.813 275.02 503.346 272.404C504.84 269.853 506.218 266.098 507.388 261.376C509.724 251.947 511.179 238.87 511.179 224.391C511.179 209.912 509.724 196.835 507.388 187.406C506.218 182.684 504.84 178.929 503.346 176.378C501.813 173.762 500.343 172.711 499.089 172.711C497.835 172.711 496.365 173.762 494.832 176.378C493.338 178.929 491.96 182.684 490.79 187.406C488.454 196.835 487 209.912 487 224.391C487 238.87 488.454 251.947 490.79 261.376C491.96 266.098 493.338 269.853 494.832 272.404C496.365 275.02 497.835 276.07 499.089 276.07Z" stroke="url(#paint10_linear_281_2)" style="mix-blend-mode:plus-lighter" stroke-width="1.89561"/>
</g>
<g filter="url(#filter6_d_281_2)">
<path d="M358.778 293.308C358.778 293.308 371.519 281.356 371.519 224.44C371.519 167.524 358.778 156.141 358.778 156.141L254.702 139.537C255.402 140.815 256.017 142.281 256.564 143.852C258.175 148.479 259.578 155.01 260.739 162.893C263.068 178.708 264.497 200.467 264.497 224.44C264.497 248.413 263.068 270.172 260.739 285.987C259.578 293.87 258.175 300.402 256.564 305.028C255.926 306.863 255.202 308.553 254.347 309.97L358.778 293.308Z" fill="url(#paint11_linear_281_2)"/>
<path d="M358.307 292.424C358.379 292.342 358.472 292.233 358.583 292.093C358.904 291.69 359.378 291.037 359.955 290.067C361.107 288.127 362.671 284.923 364.245 279.933C367.393 269.948 370.571 252.832 370.571 224.44C370.571 196.047 367.392 179.076 364.246 169.236C362.673 164.318 361.11 161.187 359.96 159.303C359.385 158.361 358.913 157.731 358.594 157.344C358.484 157.211 358.391 157.107 358.32 157.029L256.364 140.762C256.759 141.644 257.124 142.576 257.459 143.541C259.099 148.25 260.512 154.85 261.676 162.755C264.014 178.629 265.445 200.436 265.445 224.44C265.445 248.445 264.014 270.252 261.676 286.125C260.512 294.031 259.099 300.63 257.459 305.34C257.045 306.53 256.59 307.674 256.082 308.735L358.307 292.424Z" stroke="url(#paint12_linear_281_2)" style="mix-blend-mode:plus-lighter" stroke-width="1.89561"/>
</g>
<g filter="url(#filter7_d_281_2)">
<path d="M265.799 224.391C265.799 177.196 259.962 138.936 252.762 138.936C245.562 138.936 239.725 177.196 239.725 224.391C239.725 271.586 245.562 309.845 252.762 309.845C259.962 309.845 265.799 271.586 265.799 224.391Z" fill="url(#paint13_linear_281_2)"/>
<path d="M252.762 308.896C253.211 308.896 253.844 308.595 254.63 307.542C255.398 306.512 256.179 304.932 256.945 302.808C258.474 298.569 259.868 292.382 261.044 284.673C263.394 269.269 264.852 247.956 264.852 224.391C264.852 200.826 263.394 179.512 261.044 164.108C259.868 156.399 258.474 150.212 256.945 145.974C256.179 143.849 255.398 142.269 254.63 141.239C253.844 140.186 253.211 139.884 252.762 139.884C252.312 139.884 251.68 140.186 250.895 141.239C250.126 142.269 249.346 143.849 248.579 145.974C247.05 150.212 245.657 156.399 244.48 164.108C242.13 179.512 240.673 200.826 240.673 224.391C240.673 247.956 242.13 269.269 244.48 284.673C245.657 292.382 247.05 298.569 248.579 302.808C249.346 304.933 250.126 306.512 250.895 307.542C251.68 308.595 252.312 308.896 252.762 308.896Z" stroke="url(#paint14_linear_281_2)" style="mix-blend-mode:plus-lighter" stroke-width="1.89561"/>
</g>
<g filter="url(#filter8_d_281_2)">
<path d="M235.232 311.978C235.232 311.978 248.085 296.77 248.085 224.354C248.085 151.938 235.232 137.455 235.232 137.455L130.234 116.328C130.941 117.955 131.561 119.819 132.113 121.819C133.738 127.705 135.153 136.015 136.324 146.045C138.674 166.168 140.116 193.852 140.116 224.354C140.117 254.856 138.674 282.541 136.325 302.663C135.153 312.693 133.738 321.003 132.113 326.89C131.469 329.224 130.739 331.375 129.876 333.177L235.232 311.978Z" fill="url(#paint15_linear_281_2)"/>
<path d="M234.687 311.121C234.763 311.012 234.863 310.866 234.982 310.677C235.311 310.155 235.795 309.312 236.382 308.066C237.557 305.573 239.145 301.469 240.739 295.092C243.928 282.335 247.137 260.511 247.137 224.354C247.137 188.197 243.928 166.555 240.74 153.981C239.146 147.696 237.56 143.685 236.387 141.262C235.801 140.051 235.318 139.238 234.991 138.737C234.873 138.556 234.773 138.418 234.698 138.314L131.763 117.603C132.223 118.846 132.644 120.178 133.027 121.566C134.671 127.522 136.093 135.888 137.266 145.935C139.621 166.104 141.064 193.827 141.064 224.354C141.064 254.881 139.621 282.604 137.266 302.773C136.093 312.82 134.671 321.186 133.027 327.142C132.562 328.825 132.046 330.429 131.465 331.891L234.687 311.121Z" stroke="url(#paint16_linear_281_2)" style="mix-blend-mode:plus-lighter" stroke-width="1.89561"/>
</g>
<g filter="url(#filter9_d_281_2)">
<path d="M645.962 170.685C645.962 170.685 633.244 180.003 633.244 224.375C633.244 268.747 645.962 277.621 645.962 277.621L749.853 290.566C749.153 289.569 748.54 288.427 747.993 287.202C746.385 283.595 744.985 278.503 743.826 272.357C741.502 260.028 740.074 243.065 740.074 224.375C740.074 205.685 741.502 188.722 743.826 176.393C744.985 170.247 746.385 165.155 747.993 161.548C748.631 160.118 749.353 158.8 750.207 157.695L645.962 170.685Z" fill="url(#paint17_linear_281_2)"/>
<path d="M646.356 171.59C646.284 171.653 646.191 171.739 646.08 171.849C645.765 172.158 645.298 172.661 644.729 173.408C643.592 174.903 642.042 177.379 640.482 181.245C637.36 188.98 634.192 202.275 634.192 224.375C634.192 246.475 637.36 259.657 640.48 267.278C642.039 271.087 643.587 273.506 644.721 274.957C645.288 275.683 645.754 276.168 646.067 276.465C646.179 276.571 646.274 276.652 646.345 276.713L748.011 289.382C747.696 288.805 747.402 288.204 747.127 287.588C745.476 283.883 744.059 278.708 742.895 272.533C740.556 260.13 739.126 243.105 739.126 224.375C739.126 205.645 740.556 188.62 742.895 176.217C744.059 170.042 745.476 164.867 747.127 161.162C747.478 160.375 747.86 159.612 748.278 158.891L646.356 171.59Z" stroke="url(#paint18_linear_281_2)" style="mix-blend-mode:plus-lighter" stroke-width="1.89561"/>
</g>
<g filter="url(#filter10_d_281_2)">
<path d="M738.512 224.391C738.512 261.226 744.349 291.087 751.55 291.087C758.75 291.087 764.587 261.226 764.587 224.391C764.587 187.556 758.75 157.695 751.55 157.695C744.349 157.695 738.512 187.556 738.512 224.391Z" fill="url(#paint19_linear_281_2)"/>
<path d="M751.55 158.644C751.003 158.644 750.355 158.923 749.607 159.705C748.86 160.488 748.093 161.694 747.335 163.334C745.822 166.609 744.434 171.408 743.261 177.412C740.916 189.406 739.46 206.016 739.46 224.392C739.46 242.767 740.916 259.377 743.261 271.37C744.434 277.375 745.822 282.174 747.335 285.448C748.093 287.088 748.86 288.294 749.607 289.077C750.355 289.859 751.003 290.14 751.55 290.14C752.097 290.14 752.745 289.859 753.492 289.077C754.24 288.294 755.006 287.088 755.764 285.448C757.277 282.174 758.664 277.375 759.838 271.37C762.182 259.377 763.639 242.767 763.639 224.392C763.639 206.016 762.182 189.406 759.838 177.412C758.664 171.408 757.277 166.609 755.764 163.334C755.006 161.694 754.24 160.488 753.492 159.705C752.745 158.923 752.097 158.644 751.55 158.644Z" stroke="url(#paint20_linear_281_2)" style="mix-blend-mode:plus-lighter" stroke-width="1.89561"/>
</g>
<g filter="url(#filter11_d_281_2)">
<path d="M768.966 155.473C768.966 155.473 756.225 167.425 756.225 224.341C756.225 281.257 768.966 292.64 768.966 292.64L873.042 309.245C872.342 307.966 871.727 306.501 871.18 304.929C869.569 300.303 868.166 293.771 867.005 285.888C864.676 270.073 863.247 248.314 863.247 224.341C863.247 200.368 864.676 178.609 867.005 162.794C868.166 154.911 869.569 148.38 871.18 143.753C871.819 141.919 872.542 140.228 873.397 138.811L768.966 155.473Z" fill="url(#paint21_linear_281_2)"/>
<path d="M769.437 156.357C769.365 156.439 769.272 156.549 769.161 156.688C768.84 157.091 768.366 157.745 767.79 158.714C766.637 160.654 765.073 163.858 763.5 168.848C760.351 178.833 757.173 195.949 757.173 224.341C757.173 252.734 760.352 269.705 763.499 279.546C765.071 284.463 766.634 287.594 767.784 289.478C768.359 290.42 768.831 291.051 769.15 291.437C769.26 291.571 769.353 291.674 769.424 291.753L871.38 308.019C870.985 307.138 870.62 306.205 870.285 305.241C868.645 300.531 867.232 293.931 866.068 286.026C863.73 270.153 862.299 248.346 862.299 224.341C862.299 200.337 863.73 178.529 866.068 162.656C867.232 154.751 868.645 148.151 870.285 143.441C870.699 142.251 871.154 141.107 871.663 140.047L769.437 156.357Z" stroke="url(#paint22_linear_281_2)" style="mix-blend-mode:plus-lighter" stroke-width="1.89561"/>
</g>
<g filter="url(#filter12_d_281_2)">
<path d="M861.946 224.391C861.946 271.586 867.783 309.845 874.983 309.845C882.183 309.845 888.02 271.586 888.02 224.391C888.02 177.196 882.183 138.937 874.983 138.937C867.783 138.937 861.946 177.196 861.946 224.391Z" fill="url(#paint23_linear_281_2)"/>
<path d="M874.983 139.885C874.534 139.885 873.9 140.186 873.115 141.24C872.347 142.27 871.566 143.849 870.799 145.974C869.27 150.213 867.877 156.4 866.701 164.109C864.351 179.512 862.893 200.826 862.893 224.391C862.893 247.956 864.351 269.269 866.701 284.673C867.877 292.382 869.27 298.569 870.799 302.808C871.566 304.933 872.347 306.512 873.115 307.542C873.9 308.596 874.534 308.898 874.983 308.898C875.432 308.898 876.065 308.596 876.85 307.542C877.618 306.512 878.399 304.933 879.166 302.808C880.694 298.569 882.088 292.382 883.264 284.673C885.614 269.269 887.072 247.956 887.072 224.391C887.072 200.826 885.614 179.512 883.264 164.109C882.088 156.399 880.694 150.213 879.166 145.974C878.399 143.849 877.618 142.27 876.85 141.24C876.065 140.186 875.432 139.885 874.983 139.885Z" stroke="url(#paint24_linear_281_2)" style="mix-blend-mode:plus-lighter" stroke-width="1.89561"/>
</g>
<g filter="url(#filter13_d_281_2)">
<path d="M892.707 136.803C892.707 136.803 879.853 152.01 879.853 224.427C879.853 296.843 892.707 311.326 892.707 311.326L997.704 332.453C996.997 330.826 996.377 328.962 995.825 326.962C994.2 321.076 992.785 312.766 991.614 302.735C989.264 282.613 987.822 254.929 987.822 224.427C987.822 193.925 989.264 166.24 991.614 146.118C992.785 136.088 994.2 127.778 995.825 121.891C996.47 119.557 997.2 117.406 998.062 115.604L892.707 136.803Z" fill="url(#paint25_linear_281_2)"/>
<path d="M893.251 137.66C893.175 137.769 893.075 137.915 892.957 138.104C892.627 138.626 892.143 139.469 891.556 140.715C890.382 143.208 888.794 147.312 887.2 153.688C884.011 166.445 880.801 188.27 880.801 224.427C880.801 260.584 884.01 282.226 887.199 294.8C888.792 301.085 890.379 305.096 891.551 307.519C892.137 308.729 892.62 309.543 892.948 310.044C893.066 310.224 893.165 310.363 893.241 310.467L996.175 331.178C995.715 329.935 995.295 328.603 994.912 327.215C993.267 321.259 991.846 312.893 990.672 302.846C988.317 282.677 986.875 254.954 986.875 224.427C986.875 193.9 988.317 166.177 990.672 146.008C991.846 135.961 993.267 127.595 994.912 121.639C995.376 119.956 995.892 118.352 996.473 116.89L893.251 137.66Z" stroke="url(#paint26_linear_281_2)" style="mix-blend-mode:plus-lighter" stroke-width="1.89561"/>
</g>
<g filter="url(#filter14_d_281_2)">
<path d="M986.728 224.391C986.728 284.873 992.531 333.903 999.689 333.903C1006.85 333.903 1012.65 284.873 1012.65 224.391C1012.65 163.909 1006.85 114.878 999.689 114.878C992.531 114.878 986.728 163.909 986.728 224.391Z" fill="url(#paint27_linear_281_2)"/>
<path d="M999.689 115.826C999.531 115.827 999.299 115.89 998.981 116.163C998.656 116.442 998.29 116.899 997.898 117.577C997.113 118.934 996.325 120.997 995.557 123.74C994.026 129.211 992.636 137.173 991.465 147.065C989.125 166.835 987.675 194.175 987.675 224.391C987.675 254.607 989.125 281.946 991.465 301.716C992.636 311.608 994.026 319.571 995.557 325.042C996.325 327.785 997.113 329.848 997.898 331.204C998.29 331.882 998.656 332.34 998.981 332.618C999.299 332.891 999.531 332.955 999.689 332.955C999.847 332.955 1000.08 332.892 1000.4 332.618C1000.72 332.34 1001.09 331.883 1001.48 331.204C1002.27 329.848 1003.05 327.785 1003.82 325.042C1005.35 319.571 1006.74 311.608 1007.91 301.716C1010.25 281.946 1011.7 254.607 1011.7 224.391C1011.7 194.175 1010.25 166.835 1007.91 147.065C1006.74 137.173 1005.35 129.211 1003.82 123.74C1003.05 120.997 1002.27 118.934 1001.48 117.577C1001.09 116.899 1000.72 116.442 1000.4 116.163C1000.08 115.89 999.847 115.826 999.689 115.826Z" stroke="url(#paint28_linear_281_2)" style="mix-blend-mode:plus-lighter" stroke-width="1.89561"/>
</g>
<path d="M901.342 229.879V231.031H892.432V218.431H901.072V219.583H893.764V224.065H900.28V225.199H893.764V229.879H901.342ZM909.969 231.031L906.963 227.071L903.939 231.031H902.499L906.243 226.171L902.679 221.563H904.119L906.963 225.271L909.807 221.563H911.211L907.647 226.171L911.427 231.031H909.969ZM918.432 221.491C919.32 221.491 920.124 221.695 920.844 222.103C921.564 222.499 922.128 223.063 922.536 223.795C922.944 224.527 923.148 225.361 923.148 226.297C923.148 227.245 922.944 228.085 922.536 228.817C922.128 229.549 921.564 230.119 920.844 230.527C920.136 230.923 919.332 231.121 918.432 231.121C917.664 231.121 916.968 230.965 916.344 230.653C915.732 230.329 915.228 229.861 914.832 229.249V234.523H913.554V221.563H914.778V223.435C915.162 222.811 915.666 222.331 916.29 221.995C916.926 221.659 917.64 221.491 918.432 221.491ZM918.342 229.987C919.002 229.987 919.602 229.837 920.142 229.537C920.682 229.225 921.102 228.787 921.402 228.223C921.714 227.659 921.87 227.017 921.87 226.297C921.87 225.577 921.714 224.941 921.402 224.389C921.102 223.825 920.682 223.387 920.142 223.075C919.602 222.763 919.002 222.607 918.342 222.607C917.67 222.607 917.064 222.763 916.524 223.075C915.996 223.387 915.576 223.825 915.264 224.389C914.964 224.941 914.814 225.577 914.814 226.297C914.814 227.017 914.964 227.659 915.264 228.223C915.576 228.787 915.996 229.225 916.524 229.537C917.064 229.837 917.67 229.987 918.342 229.987ZM929.623 231.121C928.711 231.121 927.889 230.917 927.157 230.509C926.425 230.089 925.849 229.513 925.429 228.781C925.009 228.049 924.799 227.221 924.799 226.297C924.799 225.373 925.009 224.545 925.429 223.813C925.849 223.081 926.425 222.511 927.157 222.103C927.889 221.695 928.711 221.491 929.623 221.491C930.535 221.491 931.357 221.695 932.089 222.103C932.821 222.511 933.391 223.081 933.799 223.813C934.219 224.545 934.429 225.373 934.429 226.297C934.429 227.221 934.219 228.049 933.799 228.781C933.391 229.513 932.821 230.089 932.089 230.509C931.357 230.917 930.535 231.121 929.623 231.121ZM929.623 229.987C930.295 229.987 930.895 229.837 931.423 229.537C931.963 229.225 932.383 228.787 932.683 228.223C932.983 227.659 933.133 227.017 933.133 226.297C933.133 225.577 932.983 224.935 932.683 224.371C932.383 223.807 931.963 223.375 931.423 223.075C930.895 222.763 930.295 222.607 929.623 222.607C928.951 222.607 928.345 222.763 927.805 223.075C927.277 223.375 926.857 223.807 926.545 224.371C926.245 224.935 926.095 225.577 926.095 226.297C926.095 227.017 926.245 227.659 926.545 228.223C926.857 228.787 927.277 229.225 927.805 229.537C928.345 229.837 928.951 229.987 929.623 229.987ZM939.576 231.121C938.808 231.121 938.07 231.013 937.362 230.797C936.666 230.569 936.12 230.287 935.724 229.951L936.3 228.943C936.696 229.255 937.194 229.513 937.794 229.717C938.394 229.909 939.018 230.005 939.666 230.005C940.53 230.005 941.166 229.873 941.574 229.609C941.994 229.333 942.204 228.949 942.204 228.457C942.204 228.109 942.09 227.839 941.862 227.647C941.634 227.443 941.346 227.293 940.998 227.197C940.65 227.089 940.188 226.987 939.612 226.891C938.844 226.747 938.226 226.603 937.758 226.459C937.29 226.303 936.888 226.045 936.552 225.685C936.228 225.325 936.066 224.827 936.066 224.191C936.066 223.399 936.396 222.751 937.056 222.247C937.716 221.743 938.634 221.491 939.81 221.491C940.422 221.491 941.034 221.575 941.646 221.743C942.258 221.899 942.762 222.109 943.158 222.373L942.6 223.399C941.82 222.859 940.89 222.589 939.81 222.589C938.994 222.589 938.376 222.733 937.956 223.021C937.548 223.309 937.344 223.687 937.344 224.155C937.344 224.515 937.458 224.803 937.686 225.019C937.926 225.235 938.22 225.397 938.568 225.505C938.916 225.601 939.396 225.703 940.008 225.811C940.764 225.955 941.37 226.099 941.826 226.243C942.282 226.387 942.672 226.633 942.996 226.981C943.32 227.329 943.482 227.809 943.482 228.421C943.482 229.249 943.134 229.909 942.438 230.401C941.754 230.881 940.8 231.121 939.576 231.121ZM945.845 221.563H947.123V231.031H945.845V221.563ZM946.493 219.493C946.229 219.493 946.007 219.403 945.827 219.223C945.647 219.043 945.557 218.827 945.557 218.575C945.557 218.335 945.647 218.125 945.827 217.945C946.007 217.765 946.229 217.675 946.493 217.675C946.757 217.675 946.979 217.765 947.159 217.945C947.339 218.113 947.429 218.317 947.429 218.557C947.429 218.821 947.339 219.043 947.159 219.223C946.979 219.403 946.757 219.493 946.493 219.493ZM954.603 231.121C953.667 231.121 952.827 230.917 952.083 230.509C951.351 230.101 950.775 229.531 950.355 228.799C949.935 228.055 949.725 227.221 949.725 226.297C949.725 225.373 949.935 224.545 950.355 223.813C950.775 223.081 951.351 222.511 952.083 222.103C952.827 221.695 953.667 221.491 954.603 221.491C955.419 221.491 956.145 221.653 956.781 221.977C957.429 222.289 957.939 222.751 958.311 223.363L957.357 224.011C957.045 223.543 956.649 223.195 956.169 222.967C955.689 222.727 955.167 222.607 954.603 222.607C953.919 222.607 953.301 222.763 952.749 223.075C952.209 223.375 951.783 223.807 951.471 224.371C951.171 224.935 951.021 225.577 951.021 226.297C951.021 227.029 951.171 227.677 951.471 228.241C951.783 228.793 952.209 229.225 952.749 229.537C953.301 229.837 953.919 229.987 954.603 229.987C955.167 229.987 955.689 229.873 956.169 229.645C956.649 229.417 957.045 229.069 957.357 228.601L958.311 229.249C957.939 229.861 957.429 230.329 956.781 230.653C956.133 230.965 955.407 231.121 954.603 231.121ZM953.847 234.991C953.259 234.991 952.755 234.853 952.335 234.577L952.641 233.893C952.989 234.121 953.385 234.235 953.829 234.235C954.189 234.235 954.465 234.163 954.657 234.019C954.849 233.875 954.945 233.665 954.945 233.389C954.945 233.137 954.849 232.933 954.657 232.777C954.477 232.633 954.201 232.561 953.829 232.561H953.415L953.847 230.923H954.621L954.351 231.967C954.843 232.015 955.221 232.165 955.485 232.417C955.749 232.681 955.881 233.017 955.881 233.425C955.881 233.905 955.695 234.283 955.323 234.559C954.951 234.847 954.459 234.991 953.847 234.991ZM964.134 221.491C965.37 221.491 966.318 221.803 966.978 222.427C967.638 223.039 967.968 223.951 967.968 225.163V231.031H966.744V229.555C966.456 230.047 966.03 230.431 965.466 230.707C964.914 230.983 964.254 231.121 963.486 231.121C962.43 231.121 961.59 230.869 960.966 230.365C960.342 229.861 960.03 229.195 960.03 228.367C960.03 227.563 960.318 226.915 960.894 226.423C961.482 225.931 962.412 225.685 963.684 225.685H966.69V225.109C966.69 224.293 966.462 223.675 966.006 223.255C965.55 222.823 964.884 222.607 964.008 222.607C963.408 222.607 962.832 222.709 962.28 222.913C961.728 223.105 961.254 223.375 960.858 223.723L960.282 222.769C960.762 222.361 961.338 222.049 962.01 221.833C962.682 221.605 963.39 221.491 964.134 221.491ZM963.684 230.113C964.404 230.113 965.022 229.951 965.538 229.627C966.054 229.291 966.438 228.811 966.69 228.187V226.639H963.72C962.1 226.639 961.29 227.203 961.29 228.331C961.29 228.883 961.5 229.321 961.92 229.645C962.34 229.957 962.928 230.113 963.684 230.113ZM965.394 219.979C965.118 219.979 964.872 219.919 964.656 219.799C964.44 219.667 964.206 219.487 963.954 219.259C963.738 219.079 963.564 218.953 963.432 218.881C963.312 218.797 963.18 218.755 963.036 218.755C962.76 218.755 962.538 218.857 962.37 219.061C962.202 219.265 962.112 219.547 962.1 219.907H961.326C961.35 219.307 961.506 218.827 961.794 218.467C962.082 218.107 962.466 217.927 962.946 217.927C963.222 217.927 963.462 217.987 963.666 218.107C963.882 218.227 964.128 218.407 964.404 218.647C964.596 218.815 964.758 218.941 964.89 219.025C965.022 219.109 965.16 219.151 965.304 219.151C965.568 219.151 965.784 219.055 965.952 218.863C966.12 218.659 966.216 218.383 966.24 218.035H967.014C966.99 218.623 966.834 219.097 966.546 219.457C966.258 219.805 965.874 219.979 965.394 219.979ZM975.344 231.121C974.432 231.121 973.61 230.917 972.878 230.509C972.146 230.089 971.57 229.513 971.15 228.781C970.73 228.049 970.52 227.221 970.52 226.297C970.52 225.373 970.73 224.545 971.15 223.813C971.57 223.081 972.146 222.511 972.878 222.103C973.61 221.695 974.432 221.491 975.344 221.491C976.256 221.491 977.078 221.695 977.81 222.103C978.542 222.511 979.112 223.081 979.52 223.813C979.94 224.545 980.15 225.373 980.15 226.297C980.15 227.221 979.94 228.049 979.52 228.781C979.112 229.513 978.542 230.089 977.81 230.509C977.078 230.917 976.256 231.121 975.344 231.121ZM975.344 229.987C976.016 229.987 976.616 229.837 977.144 229.537C977.684 229.225 978.104 228.787 978.404 228.223C978.704 227.659 978.854 227.017 978.854 226.297C978.854 225.577 978.704 224.935 978.404 224.371C978.104 223.807 977.684 223.375 977.144 223.075C976.616 222.763 976.016 222.607 975.344 222.607C974.672 222.607 974.066 222.763 973.526 223.075C972.998 223.375 972.578 223.807 972.266 224.371C971.966 224.935 971.816 225.577 971.816 226.297C971.816 227.017 971.966 227.659 972.266 228.223C972.578 228.787 972.998 229.225 973.526 229.537C974.066 229.837 974.672 229.987 975.344 229.987Z" fill="white"/>
<path d="M160.189 231.031L157.309 226.981C156.985 227.017 156.649 227.035 156.301 227.035H152.917V231.031H151.585V218.431H156.301C157.909 218.431 159.169 218.815 160.081 219.583C160.993 220.351 161.449 221.407 161.449 222.751C161.449 223.735 161.197 224.569 160.693 225.253C160.201 225.925 159.493 226.411 158.569 226.711L161.647 231.031H160.189ZM156.265 225.901C157.513 225.901 158.467 225.625 159.127 225.073C159.787 224.521 160.117 223.747 160.117 222.751C160.117 221.731 159.787 220.951 159.127 220.411C158.467 219.859 157.513 219.583 156.265 219.583H152.917V225.901H156.265ZM172.567 226.693H164.647C164.719 227.677 165.097 228.475 165.781 229.087C166.465 229.687 167.329 229.987 168.373 229.987C168.961 229.987 169.501 229.885 169.993 229.681C170.485 229.465 170.911 229.153 171.271 228.745L171.991 229.573C171.571 230.077 171.043 230.461 170.407 230.725C169.783 230.989 169.093 231.121 168.337 231.121C167.365 231.121 166.501 230.917 165.745 230.509C165.001 230.089 164.419 229.513 163.999 228.781C163.579 228.049 163.369 227.221 163.369 226.297C163.369 225.373 163.567 224.545 163.963 223.813C164.371 223.081 164.923 222.511 165.619 222.103C166.327 221.695 167.119 221.491 167.995 221.491C168.871 221.491 169.657 221.695 170.353 222.103C171.049 222.511 171.595 223.081 171.991 223.813C172.387 224.533 172.585 225.361 172.585 226.297L172.567 226.693ZM167.995 222.589C167.083 222.589 166.315 222.883 165.691 223.471C165.079 224.047 164.731 224.803 164.647 225.739H171.361C171.277 224.803 170.923 224.047 170.299 223.471C169.687 222.883 168.919 222.589 167.995 222.589ZM180.172 230.455C179.932 230.671 179.632 230.839 179.272 230.959C178.924 231.067 178.558 231.121 178.174 231.121C177.286 231.121 176.602 230.881 176.122 230.401C175.642 229.921 175.402 229.243 175.402 228.367V222.643H173.71V221.563H175.402V219.493H176.68V221.563H179.56V222.643H176.68V228.295C176.68 228.859 176.818 229.291 177.094 229.591C177.382 229.879 177.79 230.023 178.318 230.023C178.582 230.023 178.834 229.981 179.074 229.897C179.326 229.813 179.542 229.693 179.722 229.537L180.172 230.455ZM190.409 226.693H182.489C182.561 227.677 182.939 228.475 183.623 229.087C184.307 229.687 185.171 229.987 186.215 229.987C186.803 229.987 187.343 229.885 187.835 229.681C188.327 229.465 188.753 229.153 189.113 228.745L189.833 229.573C189.413 230.077 188.885 230.461 188.249 230.725C187.625 230.989 186.935 231.121 186.179 231.121C185.207 231.121 184.343 230.917 183.587 230.509C182.843 230.089 182.261 229.513 181.841 228.781C181.421 228.049 181.211 227.221 181.211 226.297C181.211 225.373 181.409 224.545 181.805 223.813C182.213 223.081 182.765 222.511 183.461 222.103C184.169 221.695 184.961 221.491 185.837 221.491C186.713 221.491 187.499 221.695 188.195 222.103C188.891 222.511 189.437 223.081 189.833 223.813C190.229 224.533 190.427 225.361 190.427 226.297L190.409 226.693ZM185.837 222.589C184.925 222.589 184.157 222.883 183.533 223.471C182.921 224.047 182.573 224.803 182.489 225.739H189.203C189.119 224.803 188.765 224.047 188.141 223.471C187.529 222.883 186.761 222.589 185.837 222.589ZM197.852 221.491C199.04 221.491 199.982 221.839 200.678 222.535C201.386 223.219 201.74 224.221 201.74 225.541V231.031H200.462V225.667C200.462 224.683 200.216 223.933 199.724 223.417C199.232 222.901 198.53 222.643 197.618 222.643C196.598 222.643 195.788 222.949 195.188 223.561C194.6 224.161 194.306 224.995 194.306 226.063V231.031H193.028V221.563H194.252V223.309C194.6 222.733 195.08 222.289 195.692 221.977C196.316 221.653 197.036 221.491 197.852 221.491ZM209.169 231.121C208.233 231.121 207.393 230.917 206.649 230.509C205.917 230.101 205.341 229.531 204.921 228.799C204.501 228.055 204.291 227.221 204.291 226.297C204.291 225.373 204.501 224.545 204.921 223.813C205.341 223.081 205.917 222.511 206.649 222.103C207.393 221.695 208.233 221.491 209.169 221.491C209.985 221.491 210.711 221.653 211.347 221.977C211.995 222.289 212.505 222.751 212.877 223.363L211.923 224.011C211.611 223.543 211.215 223.195 210.735 222.967C210.255 222.727 209.733 222.607 209.169 222.607C208.485 222.607 207.867 222.763 207.315 223.075C206.775 223.375 206.349 223.807 206.037 224.371C205.737 224.935 205.587 225.577 205.587 226.297C205.587 227.029 205.737 227.677 206.037 228.241C206.349 228.793 206.775 229.225 207.315 229.537C207.867 229.837 208.485 229.987 209.169 229.987C209.733 229.987 210.255 229.873 210.735 229.645C211.215 229.417 211.611 229.069 211.923 228.601L212.877 229.249C212.505 229.861 211.995 230.329 211.347 230.653C210.699 230.965 209.973 231.121 209.169 231.121ZM208.413 234.991C207.825 234.991 207.321 234.853 206.901 234.577L207.207 233.893C207.555 234.121 207.951 234.235 208.395 234.235C208.755 234.235 209.031 234.163 209.223 234.019C209.415 233.875 209.511 233.665 209.511 233.389C209.511 233.137 209.415 232.933 209.223 232.777C209.043 232.633 208.767 232.561 208.395 232.561H207.981L208.413 230.923H209.187L208.917 231.967C209.409 232.015 209.787 232.165 210.051 232.417C210.315 232.681 210.447 233.017 210.447 233.425C210.447 233.905 210.261 234.283 209.889 234.559C209.517 234.847 209.025 234.991 208.413 234.991ZM218.699 221.491C219.935 221.491 220.883 221.803 221.543 222.427C222.203 223.039 222.533 223.951 222.533 225.163V231.031H221.309V229.555C221.021 230.047 220.595 230.431 220.031 230.707C219.479 230.983 218.819 231.121 218.051 231.121C216.995 231.121 216.155 230.869 215.531 230.365C214.907 229.861 214.595 229.195 214.595 228.367C214.595 227.563 214.883 226.915 215.459 226.423C216.047 225.931 216.977 225.685 218.249 225.685H221.255V225.109C221.255 224.293 221.027 223.675 220.571 223.255C220.115 222.823 219.449 222.607 218.573 222.607C217.973 222.607 217.397 222.709 216.845 222.913C216.293 223.105 215.819 223.375 215.423 223.723L214.847 222.769C215.327 222.361 215.903 222.049 216.575 221.833C217.247 221.605 217.955 221.491 218.699 221.491ZM218.249 230.113C218.969 230.113 219.587 229.951 220.103 229.627C220.619 229.291 221.003 228.811 221.255 228.187V226.639H218.285C216.665 226.639 215.855 227.203 215.855 228.331C215.855 228.883 216.065 229.321 216.485 229.645C216.905 229.957 217.493 230.113 218.249 230.113ZM219.959 219.979C219.683 219.979 219.437 219.919 219.221 219.799C219.005 219.667 218.771 219.487 218.519 219.259C218.303 219.079 218.129 218.953 217.997 218.881C217.877 218.797 217.745 218.755 217.601 218.755C217.325 218.755 217.103 218.857 216.935 219.061C216.767 219.265 216.677 219.547 216.665 219.907H215.891C215.915 219.307 216.071 218.827 216.359 218.467C216.647 218.107 217.031 217.927 217.511 217.927C217.787 217.927 218.027 217.987 218.231 218.107C218.447 218.227 218.693 218.407 218.969 218.647C219.161 218.815 219.323 218.941 219.455 219.025C219.587 219.109 219.725 219.151 219.869 219.151C220.133 219.151 220.349 219.055 220.517 218.863C220.685 218.659 220.781 218.383 220.805 218.035H221.579C221.555 218.623 221.399 219.097 221.111 219.457C220.823 219.805 220.439 219.979 219.959 219.979ZM229.91 231.121C228.998 231.121 228.176 230.917 227.444 230.509C226.712 230.089 226.136 229.513 225.716 228.781C225.296 228.049 225.086 227.221 225.086 226.297C225.086 225.373 225.296 224.545 225.716 223.813C226.136 223.081 226.712 222.511 227.444 222.103C228.176 221.695 228.998 221.491 229.91 221.491C230.822 221.491 231.644 221.695 232.376 222.103C233.108 222.511 233.678 223.081 234.086 223.813C234.506 224.545 234.716 225.373 234.716 226.297C234.716 227.221 234.506 228.049 234.086 228.781C233.678 229.513 233.108 230.089 232.376 230.509C231.644 230.917 230.822 231.121 229.91 231.121ZM229.91 229.987C230.582 229.987 231.182 229.837 231.71 229.537C232.25 229.225 232.67 228.787 232.97 228.223C233.27 227.659 233.42 227.017 233.42 226.297C233.42 225.577 233.27 224.935 232.97 224.371C232.67 223.807 232.25 223.375 231.71 223.075C231.182 222.763 230.582 222.607 229.91 222.607C229.238 222.607 228.632 222.763 228.092 223.075C227.564 223.375 227.144 223.807 226.832 224.371C226.532 224.935 226.382 225.577 226.382 226.297C226.382 227.017 226.532 227.659 226.832 228.223C227.144 228.787 227.564 229.225 228.092 229.537C228.632 229.837 229.238 229.987 229.91 229.987Z" fill="white"/>
<path d="M281.375 218.431H286.505C287.837 218.431 289.013 218.701 290.033 219.241C291.053 219.769 291.845 220.513 292.409 221.473C292.973 222.421 293.255 223.507 293.255 224.731C293.255 225.955 292.973 227.047 292.409 228.007C291.845 228.955 291.053 229.699 290.033 230.239C289.013 230.767 287.837 231.031 286.505 231.031H281.375V218.431ZM286.433 229.879C287.537 229.879 288.503 229.663 289.331 229.231C290.159 228.787 290.801 228.181 291.257 227.413C291.713 226.633 291.941 225.739 291.941 224.731C291.941 223.723 291.713 222.835 291.257 222.067C290.801 221.287 290.159 220.681 289.331 220.249C288.503 219.805 287.537 219.583 286.433 219.583H282.707V229.879H286.433ZM304.221 226.693H296.301C296.373 227.677 296.751 228.475 297.435 229.087C298.119 229.687 298.983 229.987 300.027 229.987C300.615 229.987 301.155 229.885 301.647 229.681C302.139 229.465 302.565 229.153 302.925 228.745L303.645 229.573C303.225 230.077 302.697 230.461 302.061 230.725C301.437 230.989 300.747 231.121 299.991 231.121C299.019 231.121 298.155 230.917 297.399 230.509C296.655 230.089 296.073 229.513 295.653 228.781C295.233 228.049 295.023 227.221 295.023 226.297C295.023 225.373 295.221 224.545 295.617 223.813C296.025 223.081 296.577 222.511 297.273 222.103C297.981 221.695 298.773 221.491 299.649 221.491C300.525 221.491 301.311 221.695 302.007 222.103C302.703 222.511 303.249 223.081 303.645 223.813C304.041 224.533 304.239 225.361 304.239 226.297L304.221 226.693ZM299.649 222.589C298.737 222.589 297.969 222.883 297.345 223.471C296.733 224.047 296.385 224.803 296.301 225.739H303.015C302.931 224.803 302.577 224.047 301.953 223.471C301.341 222.883 300.573 222.589 299.649 222.589ZM310.764 231.121C309.828 231.121 308.988 230.917 308.244 230.509C307.512 230.101 306.936 229.531 306.516 228.799C306.096 228.055 305.886 227.221 305.886 226.297C305.886 225.373 306.096 224.545 306.516 223.813C306.936 223.081 307.512 222.511 308.244 222.103C308.988 221.695 309.828 221.491 310.764 221.491C311.58 221.491 312.306 221.653 312.942 221.977C313.59 222.289 314.1 222.751 314.472 223.363L313.518 224.011C313.206 223.543 312.81 223.195 312.33 222.967C311.85 222.727 311.328 222.607 310.764 222.607C310.08 222.607 309.462 222.763 308.91 223.075C308.37 223.375 307.944 223.807 307.632 224.371C307.332 224.935 307.182 225.577 307.182 226.297C307.182 227.029 307.332 227.677 307.632 228.241C307.944 228.793 308.37 229.225 308.91 229.537C309.462 229.837 310.08 229.987 310.764 229.987C311.328 229.987 311.85 229.873 312.33 229.645C312.81 229.417 313.206 229.069 313.518 228.601L314.472 229.249C314.1 229.861 313.59 230.329 312.942 230.653C312.294 230.965 311.568 231.121 310.764 231.121ZM316.982 221.563H318.26V231.031H316.982V221.563ZM317.63 219.493C317.366 219.493 317.144 219.403 316.964 219.223C316.784 219.043 316.694 218.827 316.694 218.575C316.694 218.335 316.784 218.125 316.964 217.945C317.144 217.765 317.366 217.675 317.63 217.675C317.894 217.675 318.116 217.765 318.296 217.945C318.476 218.113 318.566 218.317 318.566 218.557C318.566 218.821 318.476 219.043 318.296 219.223C318.116 219.403 317.894 219.493 317.63 219.493ZM324.354 231.121C323.586 231.121 322.848 231.013 322.14 230.797C321.444 230.569 320.898 230.287 320.502 229.951L321.078 228.943C321.474 229.255 321.972 229.513 322.572 229.717C323.172 229.909 323.796 230.005 324.444 230.005C325.308 230.005 325.944 229.873 326.352 229.609C326.772 229.333 326.982 228.949 326.982 228.457C326.982 228.109 326.868 227.839 326.64 227.647C326.412 227.443 326.124 227.293 325.776 227.197C325.428 227.089 324.966 226.987 324.39 226.891C323.622 226.747 323.004 226.603 322.536 226.459C322.068 226.303 321.666 226.045 321.33 225.685C321.006 225.325 320.844 224.827 320.844 224.191C320.844 223.399 321.174 222.751 321.834 222.247C322.494 221.743 323.412 221.491 324.588 221.491C325.2 221.491 325.812 221.575 326.424 221.743C327.036 221.899 327.54 222.109 327.936 222.373L327.378 223.399C326.598 222.859 325.668 222.589 324.588 222.589C323.772 222.589 323.154 222.733 322.734 223.021C322.326 223.309 322.122 223.687 322.122 224.155C322.122 224.515 322.236 224.803 322.464 225.019C322.704 225.235 322.998 225.397 323.346 225.505C323.694 225.601 324.174 225.703 324.786 225.811C325.542 225.955 326.148 226.099 326.604 226.243C327.06 226.387 327.45 226.633 327.774 226.981C328.098 227.329 328.26 227.809 328.26 228.421C328.26 229.249 327.912 229.909 327.216 230.401C326.532 230.881 325.578 231.121 324.354 231.121ZM333.935 221.491C335.171 221.491 336.119 221.803 336.779 222.427C337.439 223.039 337.769 223.951 337.769 225.163V231.031H336.545V229.555C336.257 230.047 335.831 230.431 335.267 230.707C334.715 230.983 334.055 231.121 333.287 231.121C332.231 231.121 331.391 230.869 330.767 230.365C330.143 229.861 329.831 229.195 329.831 228.367C329.831 227.563 330.119 226.915 330.695 226.423C331.283 225.931 332.213 225.685 333.485 225.685H336.491V225.109C336.491 224.293 336.263 223.675 335.807 223.255C335.351 222.823 334.685 222.607 333.809 222.607C333.209 222.607 332.633 222.709 332.081 222.913C331.529 223.105 331.055 223.375 330.659 223.723L330.083 222.769C330.563 222.361 331.139 222.049 331.811 221.833C332.483 221.605 333.191 221.491 333.935 221.491ZM333.485 230.113C334.205 230.113 334.823 229.951 335.339 229.627C335.855 229.291 336.239 228.811 336.491 228.187V226.639H333.521C331.901 226.639 331.091 227.203 331.091 228.331C331.091 228.883 331.301 229.321 331.721 229.645C332.141 229.957 332.729 230.113 333.485 230.113ZM335.195 219.979C334.919 219.979 334.673 219.919 334.457 219.799C334.241 219.667 334.007 219.487 333.755 219.259C333.539 219.079 333.365 218.953 333.233 218.881C333.113 218.797 332.981 218.755 332.837 218.755C332.561 218.755 332.339 218.857 332.171 219.061C332.003 219.265 331.913 219.547 331.901 219.907H331.127C331.151 219.307 331.307 218.827 331.595 218.467C331.883 218.107 332.267 217.927 332.747 217.927C333.023 217.927 333.263 217.987 333.467 218.107C333.683 218.227 333.929 218.407 334.205 218.647C334.397 218.815 334.559 218.941 334.691 219.025C334.823 219.109 334.961 219.151 335.105 219.151C335.369 219.151 335.585 219.055 335.753 218.863C335.921 218.659 336.017 218.383 336.041 218.035H336.815C336.791 218.623 336.635 219.097 336.347 219.457C336.059 219.805 335.675 219.979 335.195 219.979ZM345.145 231.121C344.233 231.121 343.411 230.917 342.679 230.509C341.947 230.089 341.371 229.513 340.951 228.781C340.531 228.049 340.321 227.221 340.321 226.297C340.321 225.373 340.531 224.545 340.951 223.813C341.371 223.081 341.947 222.511 342.679 222.103C343.411 221.695 344.233 221.491 345.145 221.491C346.057 221.491 346.879 221.695 347.611 222.103C348.343 222.511 348.913 223.081 349.321 223.813C349.741 224.545 349.951 225.373 349.951 226.297C349.951 227.221 349.741 228.049 349.321 228.781C348.913 229.513 348.343 230.089 347.611 230.509C346.879 230.917 346.057 231.121 345.145 231.121ZM345.145 229.987C345.817 229.987 346.417 229.837 346.945 229.537C347.485 229.225 347.905 228.787 348.205 228.223C348.505 227.659 348.655 227.017 348.655 226.297C348.655 225.577 348.505 224.935 348.205 224.371C347.905 223.807 347.485 223.375 346.945 223.075C346.417 222.763 345.817 222.607 345.145 222.607C344.473 222.607 343.867 222.763 343.327 223.075C342.799 223.375 342.379 223.807 342.067 224.371C341.767 224.935 341.617 225.577 341.617 226.297C341.617 227.017 341.767 227.659 342.067 228.223C342.379 228.787 342.799 229.225 343.327 229.537C343.867 229.837 344.473 229.987 345.145 229.987Z" fill="white"/>
<path d="M523.45 232.093C523.066 232.561 522.61 232.915 522.082 233.155C521.566 233.407 521.002 233.533 520.39 233.533C519.646 233.533 518.938 233.347 518.266 232.975C517.606 232.615 516.862 232.003 516.034 231.139C514.822 231.103 513.73 230.803 512.758 230.239C511.786 229.675 511.024 228.913 510.472 227.953C509.92 226.993 509.644 225.919 509.644 224.731C509.644 223.519 509.926 222.427 510.49 221.455C511.066 220.483 511.858 219.721 512.866 219.169C513.886 218.605 515.02 218.323 516.268 218.323C517.516 218.323 518.638 218.599 519.634 219.151C520.642 219.703 521.434 220.471 522.01 221.455C522.586 222.427 522.874 223.519 522.874 224.731C522.874 225.787 522.652 226.759 522.208 227.647C521.776 228.523 521.164 229.255 520.372 229.843C519.592 230.431 518.692 230.821 517.672 231.013C518.596 231.985 519.508 232.471 520.408 232.471C521.344 232.471 522.142 232.087 522.802 231.319L523.45 232.093ZM510.958 224.731C510.958 225.715 511.186 226.603 511.642 227.395C512.11 228.187 512.746 228.811 513.55 229.267C514.366 229.723 515.272 229.951 516.268 229.951C517.264 229.951 518.164 229.723 518.968 229.267C519.772 228.811 520.402 228.187 520.858 227.395C521.314 226.603 521.542 225.715 521.542 224.731C521.542 223.747 521.314 222.859 520.858 222.067C520.402 221.275 519.772 220.651 518.968 220.195C518.164 219.739 517.264 219.511 516.268 219.511C515.272 219.511 514.366 219.739 513.55 220.195C512.746 220.651 512.11 221.275 511.642 222.067C511.186 222.859 510.958 223.747 510.958 224.731ZM534.122 221.563V231.031H532.898V229.303C532.562 229.879 532.1 230.329 531.512 230.653C530.924 230.965 530.252 231.121 529.496 231.121C528.26 231.121 527.282 230.779 526.562 230.095C525.854 229.399 525.5 228.385 525.5 227.053V221.563H526.778V226.927C526.778 227.923 527.024 228.679 527.516 229.195C528.008 229.711 528.71 229.969 529.622 229.969C530.618 229.969 531.404 229.669 531.98 229.069C532.556 228.457 532.844 227.611 532.844 226.531V221.563H534.122ZM541.013 221.491C542.249 221.491 543.197 221.803 543.857 222.427C544.517 223.039 544.847 223.951 544.847 225.163V231.031H543.623V229.555C543.335 230.047 542.909 230.431 542.345 230.707C541.793 230.983 541.133 231.121 540.365 231.121C539.309 231.121 538.469 230.869 537.845 230.365C537.221 229.861 536.909 229.195 536.909 228.367C536.909 227.563 537.197 226.915 537.773 226.423C538.361 225.931 539.291 225.685 540.563 225.685H543.569V225.109C543.569 224.293 543.341 223.675 542.885 223.255C542.429 222.823 541.763 222.607 540.887 222.607C540.287 222.607 539.711 222.709 539.159 222.913C538.607 223.105 538.133 223.375 537.737 223.723L537.161 222.769C537.641 222.361 538.217 222.049 538.889 221.833C539.561 221.605 540.269 221.491 541.013 221.491ZM540.563 230.113C541.283 230.113 541.901 229.951 542.417 229.627C542.933 229.291 543.317 228.811 543.569 228.187V226.639H540.599C538.979 226.639 538.169 227.203 538.169 228.331C538.169 228.883 538.379 229.321 538.799 229.645C539.219 229.957 539.807 230.113 540.563 230.113ZM548.318 217.675H549.596V231.031H548.318V217.675ZM553.152 221.563H554.43V231.031H553.152V221.563ZM553.8 219.493C553.536 219.493 553.314 219.403 553.134 219.223C552.954 219.043 552.864 218.827 552.864 218.575C552.864 218.335 552.954 218.125 553.134 217.945C553.314 217.765 553.536 217.675 553.8 217.675C554.064 217.675 554.286 217.765 554.466 217.945C554.646 218.113 554.736 218.317 554.736 218.557C554.736 218.821 554.646 219.043 554.466 219.223C554.286 219.403 554.064 219.493 553.8 219.493ZM561.118 218.665C560.566 218.665 560.146 218.815 559.858 219.115C559.582 219.415 559.444 219.859 559.444 220.447V221.563H562.36V222.643H559.48V231.031H558.202V222.643H556.51V221.563H558.202V220.393C558.202 219.529 558.448 218.845 558.94 218.341C559.444 217.837 560.152 217.585 561.064 217.585C561.424 217.585 561.772 217.639 562.108 217.747C562.444 217.843 562.726 217.987 562.954 218.179L562.522 219.133C562.15 218.821 561.682 218.665 561.118 218.665ZM565.528 221.563H566.806V231.031H565.528V221.563ZM566.176 219.493C565.912 219.493 565.69 219.403 565.51 219.223C565.33 219.043 565.24 218.827 565.24 218.575C565.24 218.335 565.33 218.125 565.51 217.945C565.69 217.765 565.912 217.675 566.176 217.675C566.44 217.675 566.662 217.765 566.842 217.945C567.022 218.113 567.112 218.317 567.112 218.557C567.112 218.821 567.022 219.043 566.842 219.223C566.662 219.403 566.44 219.493 566.176 219.493ZM574.303 231.121C573.367 231.121 572.527 230.917 571.783 230.509C571.051 230.101 570.475 229.531 570.055 228.799C569.635 228.055 569.425 227.221 569.425 226.297C569.425 225.373 569.635 224.545 570.055 223.813C570.475 223.081 571.051 222.511 571.783 222.103C572.527 221.695 573.367 221.491 574.303 221.491C575.119 221.491 575.845 221.653 576.481 221.977C577.129 222.289 577.639 222.751 578.011 223.363L577.057 224.011C576.745 223.543 576.349 223.195 575.869 222.967C575.389 222.727 574.867 222.607 574.303 222.607C573.619 222.607 573.001 222.763 572.449 223.075C571.909 223.375 571.483 223.807 571.171 224.371C570.871 224.935 570.721 225.577 570.721 226.297C570.721 227.029 570.871 227.677 571.171 228.241C571.483 228.793 571.909 229.225 572.449 229.537C573.001 229.837 573.619 229.987 574.303 229.987C574.867 229.987 575.389 229.873 575.869 229.645C576.349 229.417 576.745 229.069 577.057 228.601L578.011 229.249C577.639 229.861 577.129 230.329 576.481 230.653C575.833 230.965 575.107 231.121 574.303 231.121ZM583.833 221.491C585.069 221.491 586.017 221.803 586.677 222.427C587.337 223.039 587.667 223.951 587.667 225.163V231.031H586.443V229.555C586.155 230.047 585.729 230.431 585.165 230.707C584.613 230.983 583.953 231.121 583.185 231.121C582.129 231.121 581.289 230.869 580.665 230.365C580.041 229.861 579.729 229.195 579.729 228.367C579.729 227.563 580.017 226.915 580.593 226.423C581.181 225.931 582.111 225.685 583.383 225.685H586.389V225.109C586.389 224.293 586.161 223.675 585.705 223.255C585.249 222.823 584.583 222.607 583.707 222.607C583.107 222.607 582.531 222.709 581.979 222.913C581.427 223.105 580.953 223.375 580.557 223.723L579.981 222.769C580.461 222.361 581.037 222.049 581.709 221.833C582.381 221.605 583.089 221.491 583.833 221.491ZM583.383 230.113C584.103 230.113 584.721 229.951 585.237 229.627C585.753 229.291 586.137 228.811 586.389 228.187V226.639H583.419C581.799 226.639 580.989 227.203 580.989 228.331C580.989 228.883 581.199 229.321 581.619 229.645C582.039 229.957 582.627 230.113 583.383 230.113ZM595.098 231.121C594.162 231.121 593.322 230.917 592.578 230.509C591.846 230.101 591.27 229.531 590.85 228.799C590.43 228.055 590.22 227.221 590.22 226.297C590.22 225.373 590.43 224.545 590.85 223.813C591.27 223.081 591.846 222.511 592.578 222.103C593.322 221.695 594.162 221.491 595.098 221.491C595.914 221.491 596.64 221.653 597.276 221.977C597.924 222.289 598.434 222.751 598.806 223.363L597.852 224.011C597.54 223.543 597.144 223.195 596.664 222.967C596.184 222.727 595.662 222.607 595.098 222.607C594.414 222.607 593.796 222.763 593.244 223.075C592.704 223.375 592.278 223.807 591.966 224.371C591.666 224.935 591.516 225.577 591.516 226.297C591.516 227.029 591.666 227.677 591.966 228.241C592.278 228.793 592.704 229.225 593.244 229.537C593.796 229.837 594.414 229.987 595.098 229.987C595.662 229.987 596.184 229.873 596.664 229.645C597.144 229.417 597.54 229.069 597.852 228.601L598.806 229.249C598.434 229.861 597.924 230.329 597.276 230.653C596.628 230.965 595.902 231.121 595.098 231.121ZM594.342 234.991C593.754 234.991 593.25 234.853 592.83 234.577L593.136 233.893C593.484 234.121 593.88 234.235 594.324 234.235C594.684 234.235 594.96 234.163 595.152 234.019C595.344 233.875 595.44 233.665 595.44 233.389C595.44 233.137 595.344 232.933 595.152 232.777C594.972 232.633 594.696 232.561 594.324 232.561H593.91L594.342 230.923H595.116L594.846 231.967C595.338 232.015 595.716 232.165 595.98 232.417C596.244 232.681 596.376 233.017 596.376 233.425C596.376 233.905 596.19 234.283 595.818 234.559C595.446 234.847 594.954 234.991 594.342 234.991ZM604.628 221.491C605.864 221.491 606.812 221.803 607.472 222.427C608.132 223.039 608.462 223.951 608.462 225.163V231.031H607.238V229.555C606.95 230.047 606.524 230.431 605.96 230.707C605.408 230.983 604.748 231.121 603.98 231.121C602.924 231.121 602.084 230.869 601.46 230.365C600.836 229.861 600.524 229.195 600.524 228.367C600.524 227.563 600.812 226.915 601.388 226.423C601.976 225.931 602.906 225.685 604.178 225.685H607.184V225.109C607.184 224.293 606.956 223.675 606.5 223.255C606.044 222.823 605.378 222.607 604.502 222.607C603.902 222.607 603.326 222.709 602.774 222.913C602.222 223.105 601.748 223.375 601.352 223.723L600.776 222.769C601.256 222.361 601.832 222.049 602.504 221.833C603.176 221.605 603.884 221.491 604.628 221.491ZM604.178 230.113C604.898 230.113 605.516 229.951 606.032 229.627C606.548 229.291 606.932 228.811 607.184 228.187V226.639H604.214C602.594 226.639 601.784 227.203 601.784 228.331C601.784 228.883 601.994 229.321 602.414 229.645C602.834 229.957 603.422 230.113 604.178 230.113ZM605.888 219.979C605.612 219.979 605.366 219.919 605.15 219.799C604.934 219.667 604.7 219.487 604.448 219.259C604.232 219.079 604.058 218.953 603.926 218.881C603.806 218.797 603.674 218.755 603.53 218.755C603.254 218.755 603.032 218.857 602.864 219.061C602.696 219.265 602.606 219.547 602.594 219.907H601.82C601.844 219.307 602 218.827 602.288 218.467C602.576 218.107 602.96 217.927 603.44 217.927C603.716 217.927 603.956 217.987 604.16 218.107C604.376 218.227 604.622 218.407 604.898 218.647C605.09 218.815 605.252 218.941 605.384 219.025C605.516 219.109 605.654 219.151 605.798 219.151C606.062 219.151 606.278 219.055 606.446 218.863C606.614 218.659 606.71 218.383 606.734 218.035H607.508C607.484 218.623 607.328 219.097 607.04 219.457C606.752 219.805 606.368 219.979 605.888 219.979ZM615.839 231.121C614.927 231.121 614.105 230.917 613.373 230.509C612.641 230.089 612.065 229.513 611.645 228.781C611.225 228.049 611.015 227.221 611.015 226.297C611.015 225.373 611.225 224.545 611.645 223.813C612.065 223.081 612.641 222.511 613.373 222.103C614.105 221.695 614.927 221.491 615.839 221.491C616.751 221.491 617.573 221.695 618.305 222.103C619.037 222.511 619.607 223.081 620.015 223.813C620.435 224.545 620.645 225.373 620.645 226.297C620.645 227.221 620.435 228.049 620.015 228.781C619.607 229.513 619.037 230.089 618.305 230.509C617.573 230.917 616.751 231.121 615.839 231.121ZM615.839 229.987C616.511 229.987 617.111 229.837 617.639 229.537C618.179 229.225 618.599 228.787 618.899 228.223C619.199 227.659 619.349 227.017 619.349 226.297C619.349 225.577 619.199 224.935 618.899 224.371C618.599 223.807 618.179 223.375 617.639 223.075C617.111 222.763 616.511 222.607 615.839 222.607C615.167 222.607 614.561 222.763 614.021 223.075C613.493 223.375 613.073 223.807 612.761 224.371C612.461 224.935 612.311 225.577 612.311 226.297C612.311 227.017 612.461 227.659 612.761 228.223C613.073 228.787 613.493 229.225 614.021 229.537C614.561 229.837 615.167 229.987 615.839 229.987Z" fill="white"/>
<path d="M649.899 218.431H651.231V231.031H649.899V218.431ZM659.884 221.491C661.072 221.491 662.014 221.839 662.71 222.535C663.418 223.219 663.772 224.221 663.772 225.541V231.031H662.494V225.667C662.494 224.683 662.248 223.933 661.756 223.417C661.264 222.901 660.562 222.643 659.65 222.643C658.63 222.643 657.82 222.949 657.22 223.561C656.632 224.161 656.338 224.995 656.338 226.063V231.031H655.06V221.563H656.284V223.309C656.632 222.733 657.112 222.289 657.724 221.977C658.348 221.653 659.068 221.491 659.884 221.491ZM672.228 230.455C671.988 230.671 671.688 230.839 671.328 230.959C670.98 231.067 670.614 231.121 670.23 231.121C669.342 231.121 668.658 230.881 668.178 230.401C667.698 229.921 667.458 229.243 667.458 228.367V222.643H665.766V221.563H667.458V219.493H668.736V221.563H671.616V222.643H668.736V228.295C668.736 228.859 668.874 229.291 669.15 229.591C669.438 229.879 669.846 230.023 670.374 230.023C670.638 230.023 670.89 229.981 671.13 229.897C671.382 229.813 671.598 229.693 671.778 229.537L672.228 230.455ZM682.464 226.693H674.544C674.616 227.677 674.994 228.475 675.678 229.087C676.362 229.687 677.226 229.987 678.27 229.987C678.858 229.987 679.398 229.885 679.89 229.681C680.382 229.465 680.808 229.153 681.168 228.745L681.888 229.573C681.468 230.077 680.94 230.461 680.304 230.725C679.68 230.989 678.99 231.121 678.234 231.121C677.262 231.121 676.398 230.917 675.642 230.509C674.898 230.089 674.316 229.513 673.896 228.781C673.476 228.049 673.266 227.221 673.266 226.297C673.266 225.373 673.464 224.545 673.86 223.813C674.268 223.081 674.82 222.511 675.516 222.103C676.224 221.695 677.016 221.491 677.892 221.491C678.768 221.491 679.554 221.695 680.25 222.103C680.946 222.511 681.492 223.081 681.888 223.813C682.284 224.533 682.482 225.361 682.482 226.297L682.464 226.693ZM677.892 222.589C676.98 222.589 676.212 222.883 675.588 223.471C674.976 224.047 674.628 224.803 674.544 225.739H681.258C681.174 224.803 680.82 224.047 680.196 223.471C679.584 222.883 678.816 222.589 677.892 222.589ZM686.308 223.417C686.608 222.781 687.052 222.301 687.64 221.977C688.24 221.653 688.978 221.491 689.854 221.491V222.733L689.548 222.715C688.552 222.715 687.772 223.021 687.208 223.633C686.644 224.245 686.362 225.103 686.362 226.207V231.031H685.084V221.563H686.308V223.417ZM700.324 226.693H692.404C692.476 227.677 692.854 228.475 693.538 229.087C694.222 229.687 695.086 229.987 696.13 229.987C696.718 229.987 697.258 229.885 697.75 229.681C698.242 229.465 698.668 229.153 699.028 228.745L699.748 229.573C699.328 230.077 698.8 230.461 698.164 230.725C697.54 230.989 696.85 231.121 696.094 231.121C695.122 231.121 694.258 230.917 693.502 230.509C692.758 230.089 692.176 229.513 691.756 228.781C691.336 228.049 691.126 227.221 691.126 226.297C691.126 225.373 691.324 224.545 691.72 223.813C692.128 223.081 692.68 222.511 693.376 222.103C694.084 221.695 694.876 221.491 695.752 221.491C696.628 221.491 697.414 221.695 698.11 222.103C698.806 222.511 699.352 223.081 699.748 223.813C700.144 224.533 700.342 225.361 700.342 226.297L700.324 226.693ZM695.752 222.589C694.84 222.589 694.072 222.883 693.448 223.471C692.836 224.047 692.488 224.803 692.404 225.739H699.118C699.034 224.803 698.68 224.047 698.056 223.471C697.444 222.883 696.676 222.589 695.752 222.589ZM705.481 231.121C704.713 231.121 703.975 231.013 703.267 230.797C702.571 230.569 702.025 230.287 701.629 229.951L702.205 228.943C702.601 229.255 703.099 229.513 703.699 229.717C704.299 229.909 704.923 230.005 705.571 230.005C706.435 230.005 707.071 229.873 707.479 229.609C707.899 229.333 708.109 228.949 708.109 228.457C708.109 228.109 707.995 227.839 707.767 227.647C707.539 227.443 707.251 227.293 706.903 227.197C706.555 227.089 706.093 226.987 705.517 226.891C704.749 226.747 704.131 226.603 703.663 226.459C703.195 226.303 702.793 226.045 702.457 225.685C702.133 225.325 701.971 224.827 701.971 224.191C701.971 223.399 702.301 222.751 702.961 222.247C703.621 221.743 704.539 221.491 705.715 221.491C706.327 221.491 706.939 221.575 707.551 221.743C708.163 221.899 708.667 222.109 709.063 222.373L708.505 223.399C707.725 222.859 706.795 222.589 705.715 222.589C704.899 222.589 704.281 222.733 703.861 223.021C703.453 223.309 703.249 223.687 703.249 224.155C703.249 224.515 703.363 224.803 703.591 225.019C703.831 225.235 704.125 225.397 704.473 225.505C704.821 225.601 705.301 225.703 705.913 225.811C706.669 225.955 707.275 226.099 707.731 226.243C708.187 226.387 708.577 226.633 708.901 226.981C709.225 227.329 709.387 227.809 709.387 228.421C709.387 229.249 709.039 229.909 708.343 230.401C707.659 230.881 706.705 231.121 705.481 231.121ZM714.288 231.121C713.52 231.121 712.782 231.013 712.074 230.797C711.378 230.569 710.832 230.287 710.436 229.951L711.012 228.943C711.408 229.255 711.906 229.513 712.506 229.717C713.106 229.909 713.73 230.005 714.378 230.005C715.242 230.005 715.878 229.873 716.286 229.609C716.706 229.333 716.916 228.949 716.916 228.457C716.916 228.109 716.802 227.839 716.574 227.647C716.346 227.443 716.058 227.293 715.71 227.197C715.362 227.089 714.9 226.987 714.324 226.891C713.556 226.747 712.938 226.603 712.47 226.459C712.002 226.303 711.6 226.045 711.264 225.685C710.94 225.325 710.778 224.827 710.778 224.191C710.778 223.399 711.108 222.751 711.768 222.247C712.428 221.743 713.346 221.491 714.522 221.491C715.134 221.491 715.746 221.575 716.358 221.743C716.97 221.899 717.474 222.109 717.87 222.373L717.312 223.399C716.532 222.859 715.602 222.589 714.522 222.589C713.706 222.589 713.088 222.733 712.668 223.021C712.26 223.309 712.056 223.687 712.056 224.155C712.056 224.515 712.17 224.803 712.398 225.019C712.638 225.235 712.932 225.397 713.28 225.505C713.628 225.601 714.108 225.703 714.72 225.811C715.476 225.955 716.082 226.099 716.538 226.243C716.994 226.387 717.384 226.633 717.708 226.981C718.032 227.329 718.194 227.809 718.194 228.421C718.194 229.249 717.846 229.909 717.15 230.401C716.466 230.881 715.512 231.121 714.288 231.121ZM728.8 226.693H720.88C720.952 227.677 721.33 228.475 722.014 229.087C722.698 229.687 723.562 229.987 724.606 229.987C725.194 229.987 725.734 229.885 726.226 229.681C726.718 229.465 727.144 229.153 727.504 228.745L728.224 229.573C727.804 230.077 727.276 230.461 726.64 230.725C726.016 230.989 725.326 231.121 724.57 231.121C723.598 231.121 722.734 230.917 721.978 230.509C721.234 230.089 720.652 229.513 720.232 228.781C719.812 228.049 719.602 227.221 719.602 226.297C719.602 225.373 719.8 224.545 720.196 223.813C720.604 223.081 721.156 222.511 721.852 222.103C722.56 221.695 723.352 221.491 724.228 221.491C725.104 221.491 725.89 221.695 726.586 222.103C727.282 222.511 727.828 223.081 728.224 223.813C728.62 224.533 728.818 225.361 728.818 226.297L728.8 226.693ZM724.228 222.589C723.316 222.589 722.548 222.883 721.924 223.471C721.312 224.047 720.964 224.803 720.88 225.739H727.594C727.51 224.803 727.156 224.047 726.532 223.471C725.92 222.883 725.152 222.589 724.228 222.589Z" fill="white"/>
<path d="M783.596 227.665H776.576L775.064 231.031H773.678L779.438 218.431H780.752L786.512 231.031H785.108L783.596 227.665ZM783.11 226.585L780.086 219.817L777.062 226.585H783.11ZM793.225 230.455C792.985 230.671 792.685 230.839 792.325 230.959C791.977 231.067 791.611 231.121 791.227 231.121C790.339 231.121 789.655 230.881 789.175 230.401C788.695 229.921 788.455 229.243 788.455 228.367V222.643H786.763V221.563H788.455V219.493H789.733V221.563H792.613V222.643H789.733V228.295C789.733 228.859 789.871 229.291 790.147 229.591C790.435 229.879 790.843 230.023 791.371 230.023C791.635 230.023 791.887 229.981 792.127 229.897C792.379 229.813 792.595 229.693 792.775 229.537L793.225 230.455ZM803.461 226.693H795.541C795.613 227.677 795.991 228.475 796.675 229.087C797.359 229.687 798.223 229.987 799.267 229.987C799.855 229.987 800.395 229.885 800.887 229.681C801.379 229.465 801.805 229.153 802.165 228.745L802.885 229.573C802.465 230.077 801.937 230.461 801.301 230.725C800.677 230.989 799.987 231.121 799.231 231.121C798.259 231.121 797.395 230.917 796.639 230.509C795.895 230.089 795.313 229.513 794.893 228.781C794.473 228.049 794.263 227.221 794.263 226.297C794.263 225.373 794.461 224.545 794.857 223.813C795.265 223.081 795.817 222.511 796.513 222.103C797.221 221.695 798.013 221.491 798.889 221.491C799.765 221.491 800.551 221.695 801.247 222.103C801.943 222.511 802.489 223.081 802.885 223.813C803.281 224.533 803.479 225.361 803.479 226.297L803.461 226.693ZM798.889 222.589C797.977 222.589 797.209 222.883 796.585 223.471C795.973 224.047 795.625 224.803 795.541 225.739H802.255C802.171 224.803 801.817 224.047 801.193 223.471C800.581 222.883 799.813 222.589 798.889 222.589ZM810.905 221.491C812.093 221.491 813.035 221.839 813.731 222.535C814.439 223.219 814.793 224.221 814.793 225.541V231.031H813.515V225.667C813.515 224.683 813.269 223.933 812.777 223.417C812.285 222.901 811.583 222.643 810.671 222.643C809.651 222.643 808.841 222.949 808.241 223.561C807.653 224.161 807.359 224.995 807.359 226.063V231.031H806.081V221.563H807.305V223.309C807.653 222.733 808.133 222.289 808.745 221.977C809.369 221.653 810.089 221.491 810.905 221.491ZM822.222 231.121C821.286 231.121 820.446 230.917 819.702 230.509C818.97 230.101 818.394 229.531 817.974 228.799C817.554 228.055 817.344 227.221 817.344 226.297C817.344 225.373 817.554 224.545 817.974 223.813C818.394 223.081 818.97 222.511 819.702 222.103C820.446 221.695 821.286 221.491 822.222 221.491C823.038 221.491 823.764 221.653 824.4 221.977C825.048 222.289 825.558 222.751 825.93 223.363L824.976 224.011C824.664 223.543 824.268 223.195 823.788 222.967C823.308 222.727 822.786 222.607 822.222 222.607C821.538 222.607 820.92 222.763 820.368 223.075C819.828 223.375 819.402 223.807 819.09 224.371C818.79 224.935 818.64 225.577 818.64 226.297C818.64 227.029 818.79 227.677 819.09 228.241C819.402 228.793 819.828 229.225 820.368 229.537C820.92 229.837 821.538 229.987 822.222 229.987C822.786 229.987 823.308 229.873 823.788 229.645C824.268 229.417 824.664 229.069 824.976 228.601L825.93 229.249C825.558 229.861 825.048 230.329 824.4 230.653C823.752 230.965 823.026 231.121 822.222 231.121ZM821.466 234.991C820.878 234.991 820.374 234.853 819.954 234.577L820.26 233.893C820.608 234.121 821.004 234.235 821.448 234.235C821.808 234.235 822.084 234.163 822.276 234.019C822.468 233.875 822.564 233.665 822.564 233.389C822.564 233.137 822.468 232.933 822.276 232.777C822.096 232.633 821.82 232.561 821.448 232.561H821.034L821.466 230.923H822.24L821.97 231.967C822.462 232.015 822.84 232.165 823.104 232.417C823.368 232.681 823.5 233.017 823.5 233.425C823.5 233.905 823.314 234.283 822.942 234.559C822.57 234.847 822.078 234.991 821.466 234.991ZM831.752 221.491C832.988 221.491 833.936 221.803 834.596 222.427C835.256 223.039 835.586 223.951 835.586 225.163V231.031H834.362V229.555C834.074 230.047 833.648 230.431 833.084 230.707C832.532 230.983 831.872 231.121 831.104 231.121C830.048 231.121 829.208 230.869 828.584 230.365C827.96 229.861 827.648 229.195 827.648 228.367C827.648 227.563 827.936 226.915 828.512 226.423C829.1 225.931 830.03 225.685 831.302 225.685H834.308V225.109C834.308 224.293 834.08 223.675 833.624 223.255C833.168 222.823 832.502 222.607 831.626 222.607C831.026 222.607 830.45 222.709 829.898 222.913C829.346 223.105 828.872 223.375 828.476 223.723L827.9 222.769C828.38 222.361 828.956 222.049 829.628 221.833C830.3 221.605 831.008 221.491 831.752 221.491ZM831.302 230.113C832.022 230.113 832.64 229.951 833.156 229.627C833.672 229.291 834.056 228.811 834.308 228.187V226.639H831.338C829.718 226.639 828.908 227.203 828.908 228.331C828.908 228.883 829.118 229.321 829.538 229.645C829.958 229.957 830.546 230.113 831.302 230.113ZM833.012 219.979C832.736 219.979 832.49 219.919 832.274 219.799C832.058 219.667 831.824 219.487 831.572 219.259C831.356 219.079 831.182 218.953 831.05 218.881C830.93 218.797 830.798 218.755 830.654 218.755C830.378 218.755 830.156 218.857 829.988 219.061C829.82 219.265 829.73 219.547 829.718 219.907H828.944C828.968 219.307 829.124 218.827 829.412 218.467C829.7 218.107 830.084 217.927 830.564 217.927C830.84 217.927 831.08 217.987 831.284 218.107C831.5 218.227 831.746 218.407 832.022 218.647C832.214 218.815 832.376 218.941 832.508 219.025C832.64 219.109 832.778 219.151 832.922 219.151C833.186 219.151 833.402 219.055 833.57 218.863C833.738 218.659 833.834 218.383 833.858 218.035H834.632C834.608 218.623 834.452 219.097 834.164 219.457C833.876 219.805 833.492 219.979 833.012 219.979ZM842.962 231.121C842.05 231.121 841.228 230.917 840.496 230.509C839.764 230.089 839.188 229.513 838.768 228.781C838.348 228.049 838.138 227.221 838.138 226.297C838.138 225.373 838.348 224.545 838.768 223.813C839.188 223.081 839.764 222.511 840.496 222.103C841.228 221.695 842.05 221.491 842.962 221.491C843.874 221.491 844.696 221.695 845.428 222.103C846.16 222.511 846.73 223.081 847.138 223.813C847.558 224.545 847.768 225.373 847.768 226.297C847.768 227.221 847.558 228.049 847.138 228.781C846.73 229.513 846.16 230.089 845.428 230.509C844.696 230.917 843.874 231.121 842.962 231.121ZM842.962 229.987C843.634 229.987 844.234 229.837 844.762 229.537C845.302 229.225 845.722 228.787 846.022 228.223C846.322 227.659 846.472 227.017 846.472 226.297C846.472 225.577 846.322 224.935 846.022 224.371C845.722 223.807 845.302 223.375 844.762 223.075C844.234 222.763 843.634 222.607 842.962 222.607C842.29 222.607 841.684 222.763 841.144 223.075C840.616 223.375 840.196 223.807 839.884 224.371C839.584 224.935 839.434 225.577 839.434 226.297C839.434 227.017 839.584 227.659 839.884 228.223C840.196 228.787 840.616 229.225 841.144 229.537C841.684 229.837 842.29 229.987 842.962 229.987Z" fill="white"/>
<path d="M381.599 231.139C380.351 231.139 379.223 230.863 378.215 230.311C377.219 229.759 376.433 228.997 375.857 228.025C375.293 227.041 375.011 225.943 375.011 224.731C375.011 223.519 375.293 222.427 375.857 221.455C376.433 220.471 377.225 219.703 378.233 219.151C379.241 218.599 380.369 218.323 381.617 218.323C382.553 218.323 383.417 218.479 384.209 218.791C385.001 219.103 385.673 219.559 386.225 220.159L385.379 221.005C384.395 220.009 383.153 219.511 381.653 219.511C380.657 219.511 379.751 219.739 378.935 220.195C378.119 220.651 377.477 221.275 377.009 222.067C376.553 222.859 376.325 223.747 376.325 224.731C376.325 225.715 376.553 226.603 377.009 227.395C377.477 228.187 378.119 228.811 378.935 229.267C379.751 229.723 380.657 229.951 381.653 229.951C383.165 229.951 384.407 229.447 385.379 228.439L386.225 229.285C385.673 229.885 384.995 230.347 384.191 230.671C383.399 230.983 382.535 231.139 381.599 231.139ZM392.243 231.121C391.331 231.121 390.509 230.917 389.777 230.509C389.045 230.089 388.469 229.513 388.049 228.781C387.629 228.049 387.419 227.221 387.419 226.297C387.419 225.373 387.629 224.545 388.049 223.813C388.469 223.081 389.045 222.511 389.777 222.103C390.509 221.695 391.331 221.491 392.243 221.491C393.155 221.491 393.977 221.695 394.709 222.103C395.441 222.511 396.011 223.081 396.419 223.813C396.839 224.545 397.049 225.373 397.049 226.297C397.049 227.221 396.839 228.049 396.419 228.781C396.011 229.513 395.441 230.089 394.709 230.509C393.977 230.917 393.155 231.121 392.243 231.121ZM392.243 229.987C392.915 229.987 393.515 229.837 394.043 229.537C394.583 229.225 395.003 228.787 395.303 228.223C395.603 227.659 395.753 227.017 395.753 226.297C395.753 225.577 395.603 224.935 395.303 224.371C395.003 223.807 394.583 223.375 394.043 223.075C393.515 222.763 392.915 222.607 392.243 222.607C391.571 222.607 390.965 222.763 390.425 223.075C389.897 223.375 389.477 223.807 389.165 224.371C388.865 224.935 388.715 225.577 388.715 226.297C388.715 227.017 388.865 227.659 389.165 228.223C389.477 228.787 389.897 229.225 390.425 229.537C390.965 229.837 391.571 229.987 392.243 229.987ZM411.466 221.491C412.654 221.491 413.584 221.833 414.256 222.517C414.94 223.201 415.282 224.209 415.282 225.541V231.031H414.004V225.667C414.004 224.683 413.764 223.933 413.284 223.417C412.816 222.901 412.15 222.643 411.286 222.643C410.302 222.643 409.528 222.949 408.964 223.561C408.4 224.161 408.118 224.995 408.118 226.063V231.031H406.84V225.667C406.84 224.683 406.6 223.933 406.12 223.417C405.652 222.901 404.98 222.643 404.104 222.643C403.132 222.643 402.358 222.949 401.782 223.561C401.218 224.161 400.936 224.995 400.936 226.063V231.031H399.658V221.563H400.882V223.291C401.218 222.715 401.686 222.271 402.286 221.959C402.886 221.647 403.576 221.491 404.356 221.491C405.148 221.491 405.832 221.659 406.408 221.995C406.996 222.331 407.434 222.829 407.722 223.489C408.07 222.865 408.568 222.379 409.216 222.031C409.876 221.671 410.626 221.491 411.466 221.491ZM423.626 221.491C424.514 221.491 425.318 221.695 426.038 222.103C426.758 222.499 427.322 223.063 427.73 223.795C428.138 224.527 428.342 225.361 428.342 226.297C428.342 227.245 428.138 228.085 427.73 228.817C427.322 229.549 426.758 230.119 426.038 230.527C425.33 230.923 424.526 231.121 423.626 231.121C422.858 231.121 422.162 230.965 421.538 230.653C420.926 230.329 420.422 229.861 420.026 229.249V234.523H418.748V221.563H419.972V223.435C420.356 222.811 420.86 222.331 421.484 221.995C422.12 221.659 422.834 221.491 423.626 221.491ZM423.536 229.987C424.196 229.987 424.796 229.837 425.336 229.537C425.876 229.225 426.296 228.787 426.596 228.223C426.908 227.659 427.064 227.017 427.064 226.297C427.064 225.577 426.908 224.941 426.596 224.389C426.296 223.825 425.876 223.387 425.336 223.075C424.796 222.763 424.196 222.607 423.536 222.607C422.864 222.607 422.258 222.763 421.718 223.075C421.19 223.387 420.77 223.825 420.458 224.389C420.158 224.941 420.008 225.577 420.008 226.297C420.008 227.017 420.158 227.659 420.458 228.223C420.77 228.787 421.19 229.225 421.718 229.537C422.258 229.837 422.864 229.987 423.536 229.987ZM432.171 223.417C432.471 222.781 432.915 222.301 433.503 221.977C434.103 221.653 434.841 221.491 435.717 221.491V222.733L435.411 222.715C434.415 222.715 433.635 223.021 433.071 223.633C432.507 224.245 432.225 225.103 432.225 226.207V231.031H430.947V221.563H432.171V223.417ZM441.813 231.121C440.901 231.121 440.079 230.917 439.347 230.509C438.615 230.089 438.039 229.513 437.619 228.781C437.199 228.049 436.989 227.221 436.989 226.297C436.989 225.373 437.199 224.545 437.619 223.813C438.039 223.081 438.615 222.511 439.347 222.103C440.079 221.695 440.901 221.491 441.813 221.491C442.725 221.491 443.547 221.695 444.279 222.103C445.011 222.511 445.581 223.081 445.989 223.813C446.409 224.545 446.619 225.373 446.619 226.297C446.619 227.221 446.409 228.049 445.989 228.781C445.581 229.513 445.011 230.089 444.279 230.509C443.547 230.917 442.725 231.121 441.813 231.121ZM441.813 229.987C442.485 229.987 443.085 229.837 443.613 229.537C444.153 229.225 444.573 228.787 444.873 228.223C445.173 227.659 445.323 227.017 445.323 226.297C445.323 225.577 445.173 224.935 444.873 224.371C444.573 223.807 444.153 223.375 443.613 223.075C443.085 222.763 442.485 222.607 441.813 222.607C441.141 222.607 440.535 222.763 439.995 223.075C439.467 223.375 439.047 223.807 438.735 224.371C438.435 224.935 438.285 225.577 438.285 226.297C438.285 227.017 438.435 227.659 438.735 228.223C439.047 228.787 439.467 229.225 439.995 229.537C440.535 229.837 441.141 229.987 441.813 229.987ZM461.036 221.491C462.224 221.491 463.154 221.833 463.826 222.517C464.51 223.201 464.852 224.209 464.852 225.541V231.031H463.574V225.667C463.574 224.683 463.334 223.933 462.854 223.417C462.386 222.901 461.72 222.643 460.856 222.643C459.872 222.643 459.098 222.949 458.534 223.561C457.97 224.161 457.688 224.995 457.688 226.063V231.031H456.41V225.667C456.41 224.683 456.17 223.933 455.69 223.417C455.222 222.901 454.55 222.643 453.674 222.643C452.702 222.643 451.928 222.949 451.352 223.561C450.788 224.161 450.506 224.995 450.506 226.063V231.031H449.228V221.563H450.452V223.291C450.788 222.715 451.256 222.271 451.856 221.959C452.456 221.647 453.146 221.491 453.926 221.491C454.718 221.491 455.402 221.659 455.978 221.995C456.566 222.331 457.004 222.829 457.292 223.489C457.64 222.865 458.138 222.379 458.786 222.031C459.446 221.671 460.196 221.491 461.036 221.491ZM468.318 221.563H469.596V231.031H468.318V221.563ZM468.966 219.493C468.702 219.493 468.48 219.403 468.3 219.223C468.12 219.043 468.03 218.827 468.03 218.575C468.03 218.335 468.12 218.125 468.3 217.945C468.48 217.765 468.702 217.675 468.966 217.675C469.23 217.675 469.452 217.765 469.632 217.945C469.812 218.113 469.902 218.317 469.902 218.557C469.902 218.821 469.812 219.043 469.632 219.223C469.452 219.403 469.23 219.493 468.966 219.493ZM475.69 231.121C474.922 231.121 474.184 231.013 473.476 230.797C472.78 230.569 472.234 230.287 471.838 229.951L472.414 228.943C472.81 229.255 473.308 229.513 473.908 229.717C474.508 229.909 475.132 230.005 475.78 230.005C476.644 230.005 477.28 229.873 477.688 229.609C478.108 229.333 478.318 228.949 478.318 228.457C478.318 228.109 478.204 227.839 477.976 227.647C477.748 227.443 477.46 227.293 477.112 227.197C476.764 227.089 476.302 226.987 475.726 226.891C474.958 226.747 474.34 226.603 473.872 226.459C473.404 226.303 473.002 226.045 472.666 225.685C472.342 225.325 472.18 224.827 472.18 224.191C472.18 223.399 472.51 222.751 473.17 222.247C473.83 221.743 474.748 221.491 475.924 221.491C476.536 221.491 477.148 221.575 477.76 221.743C478.372 221.899 478.876 222.109 479.272 222.373L478.714 223.399C477.934 222.859 477.004 222.589 475.924 222.589C475.108 222.589 474.49 222.733 474.07 223.021C473.662 223.309 473.458 223.687 473.458 224.155C473.458 224.515 473.572 224.803 473.8 225.019C474.04 225.235 474.334 225.397 474.682 225.505C475.03 225.601 475.51 225.703 476.122 225.811C476.878 225.955 477.484 226.099 477.94 226.243C478.396 226.387 478.786 226.633 479.11 226.981C479.434 227.329 479.596 227.809 479.596 228.421C479.596 229.249 479.248 229.909 478.552 230.401C477.868 230.881 476.914 231.121 475.69 231.121ZM484.497 231.121C483.729 231.121 482.991 231.013 482.283 230.797C481.587 230.569 481.041 230.287 480.645 229.951L481.221 228.943C481.617 229.255 482.115 229.513 482.715 229.717C483.315 229.909 483.939 230.005 484.587 230.005C485.451 230.005 486.087 229.873 486.495 229.609C486.915 229.333 487.125 228.949 487.125 228.457C487.125 228.109 487.011 227.839 486.783 227.647C486.555 227.443 486.267 227.293 485.919 227.197C485.571 227.089 485.109 226.987 484.533 226.891C483.765 226.747 483.147 226.603 482.679 226.459C482.211 226.303 481.809 226.045 481.473 225.685C481.149 225.325 480.987 224.827 480.987 224.191C480.987 223.399 481.317 222.751 481.977 222.247C482.637 221.743 483.555 221.491 484.731 221.491C485.343 221.491 485.955 221.575 486.567 221.743C487.179 221.899 487.683 222.109 488.079 222.373L487.521 223.399C486.741 222.859 485.811 222.589 484.731 222.589C483.915 222.589 483.297 222.733 482.877 223.021C482.469 223.309 482.265 223.687 482.265 224.155C482.265 224.515 482.379 224.803 482.607 225.019C482.847 225.235 483.141 225.397 483.489 225.505C483.837 225.601 484.317 225.703 484.929 225.811C485.685 225.955 486.291 226.099 486.747 226.243C487.203 226.387 487.593 226.633 487.917 226.981C488.241 227.329 488.403 227.809 488.403 228.421C488.403 229.249 488.055 229.909 487.359 230.401C486.675 230.881 485.721 231.121 484.497 231.121ZM494.635 231.121C493.723 231.121 492.901 230.917 492.169 230.509C491.437 230.089 490.861 229.513 490.441 228.781C490.021 228.049 489.811 227.221 489.811 226.297C489.811 225.373 490.021 224.545 490.441 223.813C490.861 223.081 491.437 222.511 492.169 222.103C492.901 221.695 493.723 221.491 494.635 221.491C495.547 221.491 496.369 221.695 497.101 222.103C497.833 222.511 498.403 223.081 498.811 223.813C499.231 224.545 499.441 225.373 499.441 226.297C499.441 227.221 499.231 228.049 498.811 228.781C498.403 229.513 497.833 230.089 497.101 230.509C496.369 230.917 495.547 231.121 494.635 231.121ZM494.635 229.987C495.307 229.987 495.907 229.837 496.435 229.537C496.975 229.225 497.395 228.787 497.695 228.223C497.995 227.659 498.145 227.017 498.145 226.297C498.145 225.577 497.995 224.935 497.695 224.371C497.395 223.807 496.975 223.375 496.435 223.075C495.907 222.763 495.307 222.607 494.635 222.607C493.963 222.607 493.357 222.763 492.817 223.075C492.289 223.375 491.869 223.807 491.557 224.371C491.257 224.935 491.107 225.577 491.107 226.297C491.107 227.017 491.257 227.659 491.557 228.223C491.869 228.787 492.289 229.225 492.817 229.537C493.357 229.837 493.963 229.987 494.635 229.987Z" fill="white"/>
<defs>
<filter id="filter0_d_281_2" x="-0.000236511" y="7.62939e-06" width="255.676" height="448.779" filterUnits="userSpaceOnUse" color-interpolation-filters="sRGB">
<feFlood flood-opacity="0" result="BackgroundImageFix"/>
<feColorMatrix in="SourceAlpha" type="matrix" values="0 0 0 0 0 0 0 0 0 0 0 0 0 0 0 0 0 0 127 0" result="hardAlpha"/>
<feOffset/>
<feGaussianBlur stdDeviation="57.4384"/>
<feColorMatrix type="matrix" values="0 0 0 0 1 0 0 0 0 0.0662185 0 0 0 0 0.0662185 0 0 0 0.6 0"/>
<feBlend mode="normal" in2="BackgroundImageFix" result="effect1_dropShadow_281_2"/>
<feBlend mode="normal" in="SourceGraphic" in2="effect1_dropShadow_281_2" result="shape"/>
</filter>
<filter id="filter1_d_281_2" x="261.956" y="42.8186" width="346.716" height="362.624" filterUnits="userSpaceOnUse" color-interpolation-filters="sRGB">
<feFlood flood-opacity="0" result="BackgroundImageFix"/>
<feColorMatrix in="SourceAlpha" type="matrix" values="0 0 0 0 0 0 0 0 0 0 0 0 0 0 0 0 0 0 127 0" result="hardAlpha"/>
<feOffset/>
<feGaussianBlur stdDeviation="57.4384"/>
<feColorMatrix type="matrix" values="0 0 0 0 1 0 0 0 0 0.0662185 0 0 0 0 0.0662185 0 0 0 0.6 0"/>
<feBlend mode="normal" in2="BackgroundImageFix" result="effect1_dropShadow_281_2"/>
<feBlend mode="normal" in="SourceGraphic" in2="effect1_dropShadow_281_2" result="shape"/>
</filter>
<filter id="filter2_d_281_2" x="247.575" y="42.8186" width="255.828" height="363.145" filterUnits="userSpaceOnUse" color-interpolation-filters="sRGB">
<feFlood flood-opacity="0" result="BackgroundImageFix"/>
<feColorMatrix in="SourceAlpha" type="matrix" values="0 0 0 0 0 0 0 0 0 0 0 0 0 0 0 0 0 0 127 0" result="hardAlpha"/>
<feOffset/>
<feGaussianBlur stdDeviation="57.4384"/>
<feColorMatrix type="matrix" values="0 0 0 0 1 0 0 0 0 0.0662185 0 0 0 0 0.0662185 0 0 0 0.6 0"/>
<feBlend mode="normal" in2="BackgroundImageFix" result="effect1_dropShadow_281_2"/>
<feBlend mode="normal" in="SourceGraphic" in2="effect1_dropShadow_281_2" result="shape"/>
</filter>
<filter id="filter3_d_281_2" x="385.121" y="56.8865" width="358.1" height="333.491" filterUnits="userSpaceOnUse" color-interpolation-filters="sRGB">
<feFlood flood-opacity="0" result="BackgroundImageFix"/>
<feColorMatrix in="SourceAlpha" type="matrix" values="0 0 0 0 0 0 0 0 0 0 0 0 0 0 0 0 0 0 127 0" result="hardAlpha"/>
<feOffset/>
<feGaussianBlur stdDeviation="57.4384"/>
<feColorMatrix type="matrix" values="0 0 0 0 1 0 0 0 0 0.0662185 0 0 0 0 0.0662185 0 0 0 0.6 0"/>
<feBlend mode="normal" in2="BackgroundImageFix" result="effect1_dropShadow_281_2"/>
<feBlend mode="normal" in="SourceGraphic" in2="effect1_dropShadow_281_2" result="shape"/>
</filter>
<filter id="filter4_d_281_2" x="500.802" y="56.8865" width="255.828" height="335.008" filterUnits="userSpaceOnUse" color-interpolation-filters="sRGB">
<feFlood flood-opacity="0" result="BackgroundImageFix"/>
<feColorMatrix in="SourceAlpha" type="matrix" values="0 0 0 0 0 0 0 0 0 0 0 0 0 0 0 0 0 0 127 0" result="hardAlpha"/>
<feOffset/>
<feGaussianBlur stdDeviation="57.4384"/>
<feColorMatrix type="matrix" values="0 0 0 0 1 0 0 0 0 0.0662185 0 0 0 0 0.0662185 0 0 0 0.6 0"/>
<feBlend mode="normal" in2="BackgroundImageFix" result="effect1_dropShadow_281_2"/>
<feBlend mode="normal" in="SourceGraphic" in2="effect1_dropShadow_281_2" result="shape"/>
</filter>
<filter id="filter5_d_281_2" x="371.175" y="56.8868" width="255.828" height="335.008" filterUnits="userSpaceOnUse" color-interpolation-filters="sRGB">
<feFlood flood-opacity="0" result="BackgroundImageFix"/>
<feColorMatrix in="SourceAlpha" type="matrix" values="0 0 0 0 0 0 0 0 0 0 0 0 0 0 0 0 0 0 127 0" result="hardAlpha"/>
<feOffset/>
<feGaussianBlur stdDeviation="57.4384"/>
<feColorMatrix type="matrix" values="0 0 0 0 1 0 0 0 0 0.0662185 0 0 0 0 0.0662185 0 0 0 0.6 0"/>
<feBlend mode="normal" in2="BackgroundImageFix" result="effect1_dropShadow_281_2"/>
<feBlend mode="normal" in="SourceGraphic" in2="effect1_dropShadow_281_2" result="shape"/>
</filter>
<filter id="filter6_d_281_2" x="139.47" y="24.66" width="346.925" height="400.187" filterUnits="userSpaceOnUse" color-interpolation-filters="sRGB">
<feFlood flood-opacity="0" result="BackgroundImageFix"/>
<feColorMatrix in="SourceAlpha" type="matrix" values="0 0 0 0 0 0 0 0 0 0 0 0 0 0 0 0 0 0 127 0" result="hardAlpha"/>
<feOffset/>
<feGaussianBlur stdDeviation="57.4384"/>
<feColorMatrix type="matrix" values="0 0 0 0 1 0 0 0 0 0.0662185 0 0 0 0 0.0662185 0 0 0 0.6 0"/>
<feBlend mode="normal" in2="BackgroundImageFix" result="effect1_dropShadow_281_2"/>
<feBlend mode="normal" in="SourceGraphic" in2="effect1_dropShadow_281_2" result="shape"/>
</filter>
<filter id="filter7_d_281_2" x="124.848" y="24.0597" width="255.828" height="400.662" filterUnits="userSpaceOnUse" color-interpolation-filters="sRGB">
<feFlood flood-opacity="0" result="BackgroundImageFix"/>
<feColorMatrix in="SourceAlpha" type="matrix" values="0 0 0 0 0 0 0 0 0 0 0 0 0 0 0 0 0 0 127 0" result="hardAlpha"/>
<feOffset/>
<feGaussianBlur stdDeviation="57.4384"/>
<feColorMatrix type="matrix" values="0 0 0 0 1 0 0 0 0 0.0662185 0 0 0 0 0.0662185 0 0 0 0.6 0"/>
<feBlend mode="normal" in2="BackgroundImageFix" result="effect1_dropShadow_281_2"/>
<feBlend mode="normal" in="SourceGraphic" in2="effect1_dropShadow_281_2" result="shape"/>
</filter>
<filter id="filter8_d_281_2" x="14.9998" y="1.45118" width="347.962" height="446.603" filterUnits="userSpaceOnUse" color-interpolation-filters="sRGB">
<feFlood flood-opacity="0" result="BackgroundImageFix"/>
<feColorMatrix in="SourceAlpha" type="matrix" values="0 0 0 0 0 0 0 0 0 0 0 0 0 0 0 0 0 0 127 0" result="hardAlpha"/>
<feOffset/>
<feGaussianBlur stdDeviation="57.4384"/>
<feColorMatrix type="matrix" values="0 0 0 0 1 0 0 0 0 0.0662185 0 0 0 0 0.0662185 0 0 0 0.6 0"/>
<feBlend mode="normal" in2="BackgroundImageFix" result="effect1_dropShadow_281_2"/>
<feBlend mode="normal" in="SourceGraphic" in2="effect1_dropShadow_281_2" result="shape"/>
</filter>
<filter id="filter9_d_281_2" x="518.367" y="42.8186" width="346.716" height="362.624" filterUnits="userSpaceOnUse" color-interpolation-filters="sRGB">
<feFlood flood-opacity="0" result="BackgroundImageFix"/>
<feColorMatrix in="SourceAlpha" type="matrix" values="0 0 0 0 0 0 0 0 0 0 0 0 0 0 0 0 0 0 127 0" result="hardAlpha"/>
<feOffset/>
<feGaussianBlur stdDeviation="57.4384"/>
<feColorMatrix type="matrix" values="0 0 0 0 1 0 0 0 0 0.0662185 0 0 0 0 0.0662185 0 0 0 0.6 0"/>
<feBlend mode="normal" in2="BackgroundImageFix" result="effect1_dropShadow_281_2"/>
<feBlend mode="normal" in="SourceGraphic" in2="effect1_dropShadow_281_2" result="shape"/>
</filter>
<filter id="filter10_d_281_2" x="623.636" y="42.8186" width="255.828" height="363.145" filterUnits="userSpaceOnUse" color-interpolation-filters="sRGB">
<feFlood flood-opacity="0" result="BackgroundImageFix"/>
<feColorMatrix in="SourceAlpha" type="matrix" values="0 0 0 0 0 0 0 0 0 0 0 0 0 0 0 0 0 0 127 0" result="hardAlpha"/>
<feOffset/>
<feGaussianBlur stdDeviation="57.4384"/>
<feColorMatrix type="matrix" values="0 0 0 0 1 0 0 0 0 0.0662185 0 0 0 0 0.0662185 0 0 0 0.6 0"/>
<feBlend mode="normal" in2="BackgroundImageFix" result="effect1_dropShadow_281_2"/>
<feBlend mode="normal" in="SourceGraphic" in2="effect1_dropShadow_281_2" result="shape"/>
</filter>
<filter id="filter11_d_281_2" x="641.348" y="23.9345" width="346.925" height="400.187" filterUnits="userSpaceOnUse" color-interpolation-filters="sRGB">
<feFlood flood-opacity="0" result="BackgroundImageFix"/>
<feColorMatrix in="SourceAlpha" type="matrix" values="0 0 0 0 0 0 0 0 0 0 0 0 0 0 0 0 0 0 127 0" result="hardAlpha"/>
<feOffset/>
<feGaussianBlur stdDeviation="57.4384"/>
<feColorMatrix type="matrix" values="0 0 0 0 1 0 0 0 0 0.0662185 0 0 0 0 0.0662185 0 0 0 0.6 0"/>
<feBlend mode="normal" in2="BackgroundImageFix" result="effect1_dropShadow_281_2"/>
<feBlend mode="normal" in="SourceGraphic" in2="effect1_dropShadow_281_2" result="shape"/>
</filter>
<filter id="filter12_d_281_2" x="747.069" y="24.0601" width="255.828" height="400.662" filterUnits="userSpaceOnUse" color-interpolation-filters="sRGB">
<feFlood flood-opacity="0" result="BackgroundImageFix"/>
<feColorMatrix in="SourceAlpha" type="matrix" values="0 0 0 0 0 0 0 0 0 0 0 0 0 0 0 0 0 0 127 0" result="hardAlpha"/>
<feOffset/>
<feGaussianBlur stdDeviation="57.4384"/>
<feColorMatrix type="matrix" values="0 0 0 0 1 0 0 0 0 0.0662185 0 0 0 0 0.0662185 0 0 0 0.6 0"/>
<feBlend mode="normal" in2="BackgroundImageFix" result="effect1_dropShadow_281_2"/>
<feBlend mode="normal" in="SourceGraphic" in2="effect1_dropShadow_281_2" result="shape"/>
</filter>
<filter id="filter13_d_281_2" x="764.977" y="0.726814" width="347.962" height="446.603" filterUnits="userSpaceOnUse" color-interpolation-filters="sRGB">
<feFlood flood-opacity="0" result="BackgroundImageFix"/>
<feColorMatrix in="SourceAlpha" type="matrix" values="0 0 0 0 0 0 0 0 0 0 0 0 0 0 0 0 0 0 127 0" result="hardAlpha"/>
<feOffset/>
<feGaussianBlur stdDeviation="57.4384"/>
<feColorMatrix type="matrix" values="0 0 0 0 1 0 0 0 0 0.0662185 0 0 0 0 0.0662185 0 0 0 0.6 0"/>
<feBlend mode="normal" in2="BackgroundImageFix" result="effect1_dropShadow_281_2"/>
<feBlend mode="normal" in="SourceGraphic" in2="effect1_dropShadow_281_2" result="shape"/>
</filter>
<filter id="filter14_d_281_2" x="871.851" y="0.00147247" width="255.676" height="448.779" filterUnits="userSpaceOnUse" color-interpolation-filters="sRGB">
<feFlood flood-opacity="0" result="BackgroundImageFix"/>
<feColorMatrix in="SourceAlpha" type="matrix" values="0 0 0 0 0 0 0 0 0 0 0 0 0 0 0 0 0 0 127 0" result="hardAlpha"/>
<feOffset/>
<feGaussianBlur stdDeviation="57.4384"/>
<feColorMatrix type="matrix" values="0 0 0 0 1 0 0 0 0 0.0662185 0 0 0 0 0.0662185 0 0 0 0.6 0"/>
<feBlend mode="normal" in2="BackgroundImageFix" result="effect1_dropShadow_281_2"/>
<feBlend mode="normal" in="SourceGraphic" in2="effect1_dropShadow_281_2" result="shape"/>
</filter>
<linearGradient id="paint0_linear_281_2" x1="140.799" y1="333.902" x2="109.62" y2="333.151" gradientUnits="userSpaceOnUse">
<stop stop-color="#FF0000" stop-opacity="0.5"/>
<stop offset="1" stop-color="#F83535" stop-opacity="0.3"/>
</linearGradient>
<linearGradient id="paint1_linear_281_2" x1="140.782" y1="333.927" x2="81.9431" y2="324.684" gradientUnits="userSpaceOnUse">
<stop stop-color="#E50914"/>
<stop offset="1" stop-color="#FF7F86" stop-opacity="0"/>
</linearGradient>
<linearGradient id="paint2_linear_281_2" x1="493.795" y1="157.695" x2="357.409" y2="182.125" gradientUnits="userSpaceOnUse">
<stop stop-color="#FF0000" stop-opacity="0.5"/>
<stop offset="1" stop-color="#F83535" stop-opacity="0.3"/>
</linearGradient>
<linearGradient id="paint3_linear_281_2" x1="493.718" y1="157.68" x2="378.69" y2="292.066" gradientUnits="userSpaceOnUse">
<stop stop-color="#E50914"/>
<stop offset="1" stop-color="#FF7F86" stop-opacity="0"/>
</linearGradient>
<linearGradient id="paint4_linear_281_2" x1="388.526" y1="157.695" x2="357.196" y2="158.941" gradientUnits="userSpaceOnUse">
<stop stop-color="#FF0000" stop-opacity="0.5"/>
<stop offset="1" stop-color="#F83535" stop-opacity="0.3"/>
</linearGradient>
<linearGradient id="paint5_linear_281_2" x1="388.509" y1="157.68" x2="331.69" y2="172.421" gradientUnits="userSpaceOnUse">
<stop stop-color="#E50914"/>
<stop offset="1" stop-color="#FF7F86" stop-opacity="0"/>
</linearGradient>
<linearGradient id="paint6_linear_281_2" x1="617.169" y1="171.763" x2="483.23" y2="202.547" gradientUnits="userSpaceOnUse">
<stop stop-color="#FF0000" stop-opacity="0.5"/>
<stop offset="1" stop-color="#F83535" stop-opacity="0.3"/>
</linearGradient>
<linearGradient id="paint7_linear_281_2" x1="615.679" y1="171.763" x2="646.98" y2="173.341" gradientUnits="userSpaceOnUse">
<stop stop-color="#FF0000" stop-opacity="0.5"/>
<stop offset="1" stop-color="#F83535" stop-opacity="0.3"/>
</linearGradient>
<linearGradient id="paint8_linear_281_2" x1="615.696" y1="171.751" x2="670.424" y2="189.745" gradientUnits="userSpaceOnUse">
<stop stop-color="#E50914"/>
<stop offset="1" stop-color="#FF7F86" stop-opacity="0"/>
</linearGradient>
<linearGradient id="paint9_linear_281_2" x1="512.126" y1="277.018" x2="480.826" y2="275.44" gradientUnits="userSpaceOnUse">
<stop stop-color="#FF0000" stop-opacity="0.5"/>
<stop offset="1" stop-color="#F83535" stop-opacity="0.3"/>
</linearGradient>
<linearGradient id="paint10_linear_281_2" x1="512.109" y1="277.03" x2="457.382" y2="259.037" gradientUnits="userSpaceOnUse">
<stop stop-color="#E50914"/>
<stop offset="1" stop-color="#FF7F86" stop-opacity="0"/>
</linearGradient>
<linearGradient id="paint11_linear_281_2" x1="371.519" y1="309.97" x2="233.212" y2="290.622" gradientUnits="userSpaceOnUse">
<stop stop-color="#FF0000" stop-opacity="0.5"/>
<stop offset="1" stop-color="#F83535" stop-opacity="0.3"/>
</linearGradient>
<linearGradient id="paint12_linear_281_2" x1="371.442" y1="309.99" x2="222.732" y2="174.302" gradientUnits="userSpaceOnUse">
<stop stop-color="#E50914"/>
<stop offset="1" stop-color="#FF7F86" stop-opacity="0"/>
</linearGradient>
<linearGradient id="paint13_linear_281_2" x1="265.799" y1="309.845" x2="234.449" y2="308.872" gradientUnits="userSpaceOnUse">
<stop stop-color="#FF0000" stop-opacity="0.5"/>
<stop offset="1" stop-color="#F83535" stop-opacity="0.3"/>
</linearGradient>
<linearGradient id="paint14_linear_281_2" x1="265.782" y1="309.864" x2="207.527" y2="298.069" gradientUnits="userSpaceOnUse">
<stop stop-color="#E50914"/>
<stop offset="1" stop-color="#FF7F86" stop-opacity="0"/>
</linearGradient>
<linearGradient id="paint15_linear_281_2" x1="248.085" y1="333.177" x2="107.552" y2="317.589" gradientUnits="userSpaceOnUse">
<stop stop-color="#FF0000" stop-opacity="0.5"/>
<stop offset="1" stop-color="#F83535" stop-opacity="0.3"/>
</linearGradient>
<linearGradient id="paint16_linear_281_2" x1="248.007" y1="333.202" x2="67.54" y2="202.638" gradientUnits="userSpaceOnUse">
<stop stop-color="#E50914"/>
<stop offset="1" stop-color="#FF7F86" stop-opacity="0"/>
</linearGradient>
<linearGradient id="paint17_linear_281_2" x1="633.244" y1="157.695" x2="769.63" y2="182.125" gradientUnits="userSpaceOnUse">
<stop stop-color="#FF0000" stop-opacity="0.5"/>
<stop offset="1" stop-color="#F83535" stop-opacity="0.3"/>
</linearGradient>
<linearGradient id="paint18_linear_281_2" x1="633.321" y1="157.68" x2="748.349" y2="292.066" gradientUnits="userSpaceOnUse">
<stop stop-color="#E50914"/>
<stop offset="1" stop-color="#FF7F86" stop-opacity="0"/>
</linearGradient>
<linearGradient id="paint19_linear_281_2" x1="738.512" y1="157.695" x2="769.843" y2="158.941" gradientUnits="userSpaceOnUse">
<stop stop-color="#FF0000" stop-opacity="0.5"/>
<stop offset="1" stop-color="#F83535" stop-opacity="0.3"/>
</linearGradient>
<linearGradient id="paint20_linear_281_2" x1="738.53" y1="157.68" x2="795.349" y2="172.421" gradientUnits="userSpaceOnUse">
<stop stop-color="#E50914"/>
<stop offset="1" stop-color="#FF7F86" stop-opacity="0"/>
</linearGradient>
<linearGradient id="paint21_linear_281_2" x1="756.225" y1="138.811" x2="894.533" y2="158.159" gradientUnits="userSpaceOnUse">
<stop stop-color="#FF0000" stop-opacity="0.5"/>
<stop offset="1" stop-color="#F83535" stop-opacity="0.3"/>
</linearGradient>
<linearGradient id="paint22_linear_281_2" x1="756.302" y1="138.792" x2="905.012" y2="274.479" gradientUnits="userSpaceOnUse">
<stop stop-color="#E50914"/>
<stop offset="1" stop-color="#FF7F86" stop-opacity="0"/>
</linearGradient>
<linearGradient id="paint23_linear_281_2" x1="861.946" y1="138.937" x2="893.295" y2="139.91" gradientUnits="userSpaceOnUse">
<stop stop-color="#FF0000" stop-opacity="0.5"/>
<stop offset="1" stop-color="#F83535" stop-opacity="0.3"/>
</linearGradient>
<linearGradient id="paint24_linear_281_2" x1="861.963" y1="138.917" x2="920.218" y2="150.713" gradientUnits="userSpaceOnUse">
<stop stop-color="#E50914"/>
<stop offset="1" stop-color="#FF7F86" stop-opacity="0"/>
</linearGradient>
<linearGradient id="paint25_linear_281_2" x1="879.853" y1="115.604" x2="1020.39" y2="131.192" gradientUnits="userSpaceOnUse">
<stop stop-color="#FF0000" stop-opacity="0.5"/>
<stop offset="1" stop-color="#F83535" stop-opacity="0.3"/>
</linearGradient>
<linearGradient id="paint26_linear_281_2" x1="879.931" y1="115.579" x2="1060.4" y2="246.143" gradientUnits="userSpaceOnUse">
<stop stop-color="#E50914"/>
<stop offset="1" stop-color="#FF7F86" stop-opacity="0"/>
</linearGradient>
<linearGradient id="paint27_linear_281_2" x1="986.728" y1="114.878" x2="1017.91" y2="115.629" gradientUnits="userSpaceOnUse">
<stop stop-color="#FF0000" stop-opacity="0.5"/>
<stop offset="1" stop-color="#F83535" stop-opacity="0.3"/>
</linearGradient>
<linearGradient id="paint28_linear_281_2" x1="986.745" y1="114.853" x2="1045.58" y2="124.096" gradientUnits="userSpaceOnUse">
<stop stop-color="#E50914"/>
<stop offset="1" stop-color="#FF7F86" stop-opacity="0"/>
</linearGradient>
</defs>
</svg>
