<svg width="698" height="167" viewBox="0 0 698 167" fill="none" xmlns="http://www.w3.org/2000/svg">
<path d="M228.099 5.74171C233.839 5.74171 238.808 6.69849 243.006 8.61205C247.265 10.5256 250.537 13.2416 252.821 16.7601C255.104 20.2786 256.246 24.4452 256.246 29.2599C256.246 34.0129 255.104 38.1796 252.821 41.7598C250.537 45.2782 247.265 47.9942 243.006 49.9078C238.808 51.7596 233.839 52.6855 228.099 52.6855H215.043V70.5557H200.043V5.74171H228.099ZM227.265 40.4635C231.771 40.4635 235.197 39.5067 237.543 37.5931C239.889 35.6179 241.061 32.8401 241.061 29.2599C241.061 25.618 239.889 22.8403 237.543 20.9267C235.197 18.9514 231.771 17.9638 227.265 17.9638H215.043V40.4635H227.265ZM279.733 27.3155C281.461 24.9081 283.776 23.0872 286.677 21.8526C289.64 20.6181 293.035 20.0008 296.862 20.0008V33.3339C295.257 33.2105 294.177 33.1488 293.622 33.1488C289.486 33.1488 286.245 34.3216 283.899 36.6672C281.554 38.9511 280.381 42.4079 280.381 47.0375V70.5557H265.937V20.7415H279.733V27.3155ZM328.702 71.2964C323.455 71.2964 318.733 70.2162 314.536 68.0557C310.4 65.8335 307.159 62.778 304.813 58.8892C302.468 55.0003 301.295 50.5868 301.295 45.6486C301.295 40.7104 302.468 36.2969 304.813 32.408C307.159 28.5192 310.4 25.4945 314.536 23.3341C318.733 21.1119 323.455 20.0008 328.702 20.0008C333.949 20.0008 338.64 21.1119 342.776 23.3341C346.912 25.4945 350.152 28.5192 352.498 32.408C354.844 36.2969 356.017 40.7104 356.017 45.6486C356.017 50.5868 354.844 55.0003 352.498 58.8892C350.152 62.778 346.912 65.8335 342.776 68.0557C338.64 70.2162 333.949 71.2964 328.702 71.2964ZM328.702 59.4447C332.406 59.4447 335.43 58.2101 337.776 55.741C340.183 53.2102 341.387 49.8461 341.387 45.6486C341.387 41.4511 340.183 38.1178 337.776 35.6487C335.43 33.1179 332.406 31.8525 328.702 31.8525C324.998 31.8525 321.943 33.1179 319.536 35.6487C317.128 38.1178 315.924 41.4511 315.924 45.6486C315.924 49.8461 317.128 53.2102 319.536 55.741C321.943 58.2101 324.998 59.4447 328.702 59.4447ZM416.411 1.85288V70.5557H402.615V64.815C399.035 69.1359 393.85 71.2964 387.06 71.2964C382.369 71.2964 378.109 70.247 374.282 68.1483C370.517 66.0496 367.554 63.0558 365.394 59.1669C363.233 55.2781 362.153 50.772 362.153 45.6486C362.153 40.5252 363.233 36.0191 365.394 32.1303C367.554 28.2414 370.517 25.2476 374.282 23.1489C378.109 21.0502 382.369 20.0008 387.06 20.0008C393.418 20.0008 398.387 22.0069 401.967 26.0192V1.85288H416.411ZM389.56 59.4447C393.202 59.4447 396.226 58.2101 398.634 55.741C401.041 53.2102 402.245 49.8461 402.245 45.6486C402.245 41.4511 401.041 38.1178 398.634 35.6487C396.226 33.1179 393.202 31.8525 389.56 31.8525C385.856 31.8525 382.801 33.1179 380.393 35.6487C377.986 38.1178 376.782 41.4511 376.782 45.6486C376.782 49.8461 377.986 53.2102 380.393 55.741C382.801 58.2101 385.856 59.4447 389.56 59.4447ZM479.965 20.7415V70.5557H466.261V64.6298C464.347 66.7903 462.064 68.4569 459.409 69.6298C456.755 70.7408 453.885 71.2964 450.798 71.2964C444.255 71.2964 439.07 69.4137 435.243 65.6483C431.416 61.8829 429.502 56.2966 429.502 48.8893V20.7415H443.946V46.7597C443.946 54.7843 447.311 58.7966 454.039 58.7966C457.496 58.7966 460.273 57.6855 462.372 55.4633C464.471 53.1794 465.52 49.8152 465.52 45.3708V20.7415H479.965ZM517.42 71.2964C512.111 71.2964 507.327 70.2162 503.068 68.0557C498.871 65.8335 495.568 62.778 493.161 58.8892C490.815 55.0003 489.642 50.5868 489.642 45.6486C489.642 40.7104 490.815 36.2969 493.161 32.408C495.568 28.5192 498.871 25.4945 503.068 23.3341C507.327 21.1119 512.111 20.0008 517.42 20.0008C522.667 20.0008 527.235 21.1119 531.123 23.3341C535.074 25.4945 537.944 28.6118 539.734 32.6858L528.531 38.7042C525.938 34.1364 522.204 31.8525 517.327 31.8525C513.562 31.8525 510.445 33.087 507.976 35.5561C505.506 38.0252 504.272 41.3894 504.272 45.6486C504.272 49.9078 505.506 53.2719 507.976 55.741C510.445 58.2101 513.562 59.4447 517.327 59.4447C522.266 59.4447 526 57.1608 528.531 52.5929L539.734 58.704C537.944 62.6545 535.074 65.7409 531.123 67.9631C527.235 70.1853 522.667 71.2964 517.42 71.2964ZM580.904 68.1483C579.484 69.1977 577.725 70.0001 575.626 70.5557C573.589 71.0495 571.428 71.2964 569.144 71.2964C563.219 71.2964 558.62 69.7841 555.348 66.7594C552.139 63.7348 550.534 59.2904 550.534 53.4263V32.9636H542.849V21.8526H550.534V9.72314H564.978V21.8526H577.385V32.9636H564.978V53.2411C564.978 55.3398 565.503 56.9756 566.552 58.1484C567.663 59.2595 569.206 59.8151 571.181 59.8151C573.465 59.8151 575.41 59.1978 577.015 57.9632L580.904 68.1483ZM259.024 147.556L258.932 108.667L239.858 140.704H233.099L214.117 109.501V147.556H200.043V82.7417H212.451L236.71 123.019L260.598 82.7417H272.913L273.098 147.556H259.024ZM307.549 97.0008C315.265 97.0008 321.191 98.8526 325.327 102.556C329.463 106.198 331.53 111.723 331.53 119.13V147.556H318.012V141.352C315.296 145.982 310.234 148.296 302.827 148.296C299 148.296 295.667 147.648 292.827 146.352C290.05 145.056 287.92 143.266 286.438 140.982C284.957 138.698 284.216 136.105 284.216 133.204C284.216 128.574 285.945 124.933 289.401 122.278C292.92 119.624 298.321 118.297 305.605 118.297H317.086C317.086 115.149 316.129 112.741 314.216 111.075C312.302 109.346 309.432 108.482 305.605 108.482C302.951 108.482 300.327 108.914 297.735 109.778C295.204 110.581 293.043 111.692 291.253 113.112L286.068 103.019C288.784 101.106 292.025 99.6242 295.79 98.5748C299.617 97.5255 303.537 97.0008 307.549 97.0008ZM306.438 138.574C308.907 138.574 311.099 138.019 313.012 136.908C314.926 135.735 316.284 134.037 317.086 131.815V126.723H307.179C301.253 126.723 298.29 128.667 298.29 132.556C298.29 134.408 299 135.889 300.42 137C301.901 138.05 303.907 138.574 306.438 138.574ZM358.399 104.316C360.128 101.908 362.442 100.087 365.344 98.8526C368.307 97.6181 371.702 97.0008 375.529 97.0008V110.334C373.924 110.21 372.844 110.149 372.288 110.149C368.152 110.149 364.912 111.322 362.566 113.667C360.22 115.951 359.047 119.408 359.047 124.037V147.556H344.603V97.7415H358.399V104.316ZM405.506 128.019L398.562 134.871V147.556H384.117V78.8529H398.562V117.741L419.672 97.7415H436.894L416.154 118.852L438.746 147.556H421.246L405.506 128.019ZM491.868 122.834C491.868 123.019 491.775 124.315 491.59 126.723H453.905C454.584 129.809 456.189 132.247 458.72 134.037C461.251 135.827 464.399 136.722 468.164 136.722C470.757 136.722 473.041 136.352 475.016 135.611C477.053 134.809 478.936 133.574 480.664 131.908L488.349 140.241C483.658 145.611 476.806 148.296 467.794 148.296C462.177 148.296 457.208 147.216 452.887 145.056C448.566 142.834 445.232 139.778 442.887 135.889C440.541 132 439.368 127.587 439.368 122.649C439.368 117.772 440.51 113.389 442.794 109.501C445.14 105.55 448.319 102.495 452.331 100.334C456.405 98.1119 460.942 97.0008 465.942 97.0008C470.818 97.0008 475.232 98.0502 479.183 100.149C483.133 102.248 486.219 105.272 488.442 109.223C490.726 113.112 491.868 117.649 491.868 122.834ZM466.035 107.927C462.763 107.927 460.016 108.852 457.794 110.704C455.572 112.556 454.214 115.087 453.72 118.297H478.257C477.763 115.149 476.405 112.649 474.183 110.797C471.96 108.883 469.244 107.927 466.035 107.927ZM533.613 145.148C532.193 146.198 530.434 147 528.336 147.556C526.299 148.049 524.138 148.296 521.854 148.296C515.928 148.296 511.33 146.784 508.058 143.759C504.848 140.735 503.243 136.29 503.243 130.426V109.964H495.558V98.8526H503.243V86.7231H517.688V98.8526H530.095V109.964H517.688V130.241C517.688 132.34 518.212 133.976 519.262 135.148C520.373 136.26 521.916 136.815 523.891 136.815C526.175 136.815 528.119 136.198 529.724 134.963L533.613 145.148ZM541.721 97.7415H556.166V147.556H541.721V97.7415ZM548.944 90.7972C546.289 90.7972 544.129 90.0256 542.462 88.4824C540.796 86.9392 539.962 85.0256 539.962 82.7417C539.962 80.4578 540.796 78.5442 542.462 77.001C544.129 75.4579 546.289 74.6863 548.944 74.6863C551.598 74.6863 553.758 75.427 555.425 76.9085C557.092 78.3899 557.925 80.2417 557.925 82.4639C557.925 84.8713 557.092 86.8775 555.425 88.4824C553.758 90.0256 551.598 90.7972 548.944 90.7972ZM599.849 97.0008C606.021 97.0008 610.99 98.8526 614.756 102.556C618.583 106.26 620.496 111.754 620.496 119.038V147.556H606.052V121.26C606.052 117.309 605.188 114.377 603.46 112.464C601.731 110.488 599.231 109.501 595.96 109.501C592.318 109.501 589.417 110.643 587.256 112.926C585.096 115.149 584.015 118.482 584.015 122.926V147.556H569.571V97.7415H583.367V103.575C585.281 101.476 587.657 99.8711 590.497 98.76C593.336 97.5872 596.454 97.0008 599.849 97.0008ZM685.52 97.7415V139.222C685.52 148.358 683.144 155.148 678.391 159.593C673.638 164.037 666.693 166.259 657.558 166.259C652.743 166.259 648.175 165.673 643.854 164.5C639.533 163.327 635.953 161.63 633.113 159.407L638.854 149.037C640.953 150.765 643.607 152.124 646.817 153.111C650.027 154.161 653.237 154.685 656.447 154.685C661.446 154.685 665.119 153.543 667.465 151.259C669.872 149.037 671.076 145.642 671.076 141.074V138.945C667.311 143.08 662.064 145.148 655.335 145.148C650.768 145.148 646.57 144.161 642.743 142.185C638.978 140.148 635.984 137.309 633.762 133.667C631.539 130.025 630.428 125.828 630.428 121.075C630.428 116.322 631.539 112.124 633.762 108.482C635.984 104.84 638.978 102.032 642.743 100.056C646.57 98.0193 650.768 97.0008 655.335 97.0008C662.558 97.0008 668.051 99.3773 671.817 104.13V97.7415H685.52ZM658.206 133.297C662.033 133.297 665.15 132.185 667.557 129.963C670.027 127.679 671.261 124.716 671.261 121.075C671.261 117.433 670.027 114.501 667.557 112.278C665.15 109.994 662.033 108.852 658.206 108.852C654.379 108.852 651.231 109.994 648.761 112.278C646.292 114.501 645.058 117.433 645.058 121.075C645.058 124.716 646.292 127.679 648.761 129.963C651.231 132.185 654.379 133.297 658.206 133.297Z" fill="white"/>
<path d="M127.333 110.692V133.243H103.475V110.692H33.4683C32.8128 110.692 32.2778 110.161 32.2778 109.498V88.1603C32.2778 86.5412 32.9188 84.9898 34.0611 83.8444L102.256 15.548H124.99C126.287 15.548 127.337 16.6016 127.337 17.8969V85.4828H147.494V19.3178C147.494 8.65122 138.871 0 128.229 0H33.4056V52.9513L70.7489 15.548H94.8573L33.4056 77.0925L30.0655 80.437C29.7763 80.727 29.3088 80.7222 29.0293 80.4274L17.7366 68.6395L16.363 67.2041V0.217489C7.09948 1.62392 0 9.63717 0 19.3178V132.601C0 143.267 8.62251 151.918 19.2645 151.918H128.224C138.861 151.918 147.489 143.272 147.489 132.601V110.697H127.333V110.692Z" fill="white"/>
<path d="M103.419 85.4647V48.2402L66.249 85.4647H103.419Z" fill="white"/>
</svg>
