<svg width="3015" height="719" viewBox="0 0 3015 719" fill="none" xmlns="http://www.w3.org/2000/svg">
<path d="M985.4 25C1010.2 25 1031.67 29.1333 1049.8 37.4C1068.2 45.6667 1082.33 57.4 1092.2 72.6C1102.07 87.8 1107 105.8 1107 126.6C1107 147.133 1102.07 165.133 1092.2 180.6C1082.33 195.8 1068.2 207.533 1049.8 215.8C1031.67 223.8 1010.2 227.8 985.4 227.8H929V305H864.2V25H985.4ZM981.8 175C1001.27 175 1016.07 170.867 1026.2 162.6C1036.33 154.067 1041.4 142.067 1041.4 126.6C1041.4 110.867 1036.33 98.8667 1026.2 90.6C1016.07 82.0667 1001.27 77.8 981.8 77.8H929V175H981.8ZM1208.46 118.2C1215.93 107.8 1225.93 99.9333 1238.46 94.6C1251.26 89.2667 1265.93 86.6 1282.46 86.6V144.2C1275.53 143.667 1270.86 143.4 1268.46 143.4C1250.6 143.4 1236.6 148.467 1226.46 158.6C1216.33 168.467 1211.26 183.4 1211.26 203.4V305H1148.86V89.8H1208.46V118.2ZM1420.01 308.2C1397.35 308.2 1376.95 303.533 1358.81 294.2C1340.95 284.6 1326.95 271.4 1316.81 254.6C1306.68 237.8 1301.61 218.733 1301.61 197.4C1301.61 176.067 1306.68 157 1316.81 140.2C1326.95 123.4 1340.95 110.333 1358.81 101C1376.95 91.4 1397.35 86.6 1420.01 86.6C1442.68 86.6 1462.95 91.4 1480.81 101C1498.68 110.333 1512.68 123.4 1522.81 140.2C1532.95 157 1538.01 176.067 1538.01 197.4C1538.01 218.733 1532.95 237.8 1522.81 254.6C1512.68 271.4 1498.68 284.6 1480.81 294.2C1462.95 303.533 1442.68 308.2 1420.01 308.2ZM1420.01 257C1436.01 257 1449.08 251.667 1459.21 241C1469.61 230.067 1474.81 215.533 1474.81 197.4C1474.81 179.267 1469.61 164.867 1459.21 154.2C1449.08 143.267 1436.01 137.8 1420.01 137.8C1404.01 137.8 1390.81 143.267 1380.41 154.2C1370.01 164.867 1364.81 179.267 1364.81 197.4C1364.81 215.533 1370.01 230.067 1380.41 241C1390.81 251.667 1404.01 257 1420.01 257ZM1798.92 8.19998V305H1739.32V280.2C1723.86 298.867 1701.46 308.2 1672.12 308.2C1651.86 308.2 1633.46 303.667 1616.92 294.6C1600.66 285.533 1587.86 272.6 1578.52 255.8C1569.19 239 1564.52 219.533 1564.52 197.4C1564.52 175.267 1569.19 155.8 1578.52 139C1587.86 122.2 1600.66 109.267 1616.92 100.2C1633.46 91.1333 1651.86 86.6 1672.12 86.6C1699.59 86.6 1721.06 95.2667 1736.52 112.6V8.19998H1798.92ZM1682.92 257C1698.66 257 1711.72 251.667 1722.12 241C1732.52 230.067 1737.72 215.533 1737.72 197.4C1737.72 179.267 1732.52 164.867 1722.12 154.2C1711.72 143.267 1698.66 137.8 1682.92 137.8C1666.92 137.8 1653.72 143.267 1643.32 154.2C1632.92 164.867 1627.72 179.267 1627.72 197.4C1627.72 215.533 1632.92 230.067 1643.32 241C1653.72 251.667 1666.92 257 1682.92 257ZM2073.48 89.8V305H2014.28V279.4C2006.01 288.733 1996.14 295.933 1984.68 301C1973.21 305.8 1960.81 308.2 1947.48 308.2C1919.21 308.2 1896.81 300.067 1880.28 283.8C1863.74 267.533 1855.48 243.4 1855.48 211.4V89.8H1917.88V202.2C1917.88 236.867 1932.41 254.2 1961.48 254.2C1976.41 254.2 1988.41 249.4 1997.48 239.8C2006.54 229.933 2011.08 215.4 2011.08 196.2V89.8H2073.48ZM2235.28 308.2C2212.35 308.2 2191.68 303.533 2173.28 294.2C2155.15 284.6 2140.88 271.4 2130.48 254.6C2120.35 237.8 2115.28 218.733 2115.28 197.4C2115.28 176.067 2120.35 157 2130.48 140.2C2140.88 123.4 2155.15 110.333 2173.28 101C2191.68 91.4 2212.35 86.6 2235.28 86.6C2257.95 86.6 2277.68 91.4 2294.48 101C2311.55 110.333 2323.95 123.8 2331.68 141.4L2283.28 167.4C2272.08 147.667 2255.95 137.8 2234.88 137.8C2218.62 137.8 2205.15 143.133 2194.48 153.8C2183.82 164.467 2178.48 179 2178.48 197.4C2178.48 215.8 2183.82 230.333 2194.48 241C2205.15 251.667 2218.62 257 2234.88 257C2256.22 257 2272.35 247.133 2283.28 227.4L2331.68 253.8C2323.95 270.867 2311.55 284.2 2294.48 293.8C2277.68 303.4 2257.95 308.2 2235.28 308.2ZM2509.54 294.6C2503.4 299.133 2495.8 302.6 2486.74 305C2477.94 307.133 2468.6 308.2 2458.74 308.2C2433.14 308.2 2413.27 301.667 2399.14 288.6C2385.27 275.533 2378.34 256.333 2378.34 231V142.6H2345.14V94.6H2378.34V42.2H2440.74V94.6H2494.34V142.6H2440.74V230.2C2440.74 239.267 2443 246.333 2447.54 251.4C2452.34 256.2 2459 258.6 2467.54 258.6C2477.4 258.6 2485.8 255.933 2492.74 250.6L2509.54 294.6ZM1119 638L1118.6 470L1036.2 608.4H1007L925 473.6V638H864.2V358H917.8L1022.6 532L1125.8 358H1179L1179.8 638H1119ZM1328.63 419.6C1361.96 419.6 1387.56 427.6 1405.43 443.6C1423.3 459.333 1432.23 483.2 1432.23 515.2V638H1373.83V611.2C1362.1 631.2 1340.23 641.2 1308.23 641.2C1291.7 641.2 1277.3 638.4 1265.03 632.8C1253.03 627.2 1243.83 619.467 1237.43 609.6C1231.03 599.733 1227.83 588.533 1227.83 576C1227.83 556 1235.3 540.267 1250.23 528.8C1265.43 517.333 1288.76 511.6 1320.23 511.6H1369.83C1369.83 498 1365.7 487.6 1357.43 480.4C1349.16 472.933 1336.76 469.2 1320.23 469.2C1308.76 469.2 1297.43 471.067 1286.23 474.8C1275.3 478.267 1265.96 483.067 1258.23 489.2L1235.83 445.6C1247.56 437.333 1261.56 430.933 1277.83 426.4C1294.36 421.867 1311.3 419.6 1328.63 419.6ZM1323.83 599.2C1334.5 599.2 1343.96 596.8 1352.23 592C1360.5 586.933 1366.36 579.6 1369.83 570V548H1327.03C1301.43 548 1288.63 556.4 1288.63 573.2C1288.63 581.2 1291.7 587.6 1297.83 592.4C1304.23 596.933 1312.9 599.2 1323.83 599.2ZM1548.31 451.2C1555.77 440.8 1565.77 432.933 1578.31 427.6C1591.11 422.267 1605.77 419.6 1622.31 419.6V477.2C1615.37 476.667 1610.71 476.4 1608.31 476.4C1590.44 476.4 1576.44 481.467 1566.31 491.6C1556.17 501.467 1551.11 516.4 1551.11 536.4V638H1488.71V422.8H1548.31V451.2ZM1751.81 553.6L1721.81 583.2V638H1659.41V341.2H1721.81V509.2L1813.01 422.8H1887.41L1797.81 514L1895.41 638H1819.81L1751.81 553.6ZM2124.9 531.2C2124.9 532 2124.5 537.6 2123.7 548H1960.9C1963.83 561.333 1970.76 571.867 1981.7 579.6C1992.63 587.333 2006.23 591.2 2022.5 591.2C2033.7 591.2 2043.56 589.6 2052.1 586.4C2060.9 582.933 2069.03 577.6 2076.5 570.4L2109.7 606.4C2089.43 629.6 2059.83 641.2 2020.9 641.2C1996.63 641.2 1975.16 636.533 1956.5 627.2C1937.83 617.6 1923.43 604.4 1913.3 587.6C1903.16 570.8 1898.1 551.733 1898.1 530.4C1898.1 509.333 1903.03 490.4 1912.9 473.6C1923.03 456.533 1936.76 443.333 1954.1 434C1971.7 424.4 1991.3 419.6 2012.9 419.6C2033.96 419.6 2053.03 424.133 2070.1 433.2C2087.16 442.267 2100.5 455.333 2110.1 472.4C2119.96 489.2 2124.9 508.8 2124.9 531.2ZM2013.3 466.8C1999.16 466.8 1987.3 470.8 1977.7 478.8C1968.1 486.8 1962.23 497.733 1960.1 511.6H2066.1C2063.96 498 2058.1 487.2 2048.5 479.2C2038.9 470.933 2027.16 466.8 2013.3 466.8ZM2305.24 627.6C2299.11 632.133 2291.51 635.6 2282.44 638C2273.64 640.133 2264.31 641.2 2254.44 641.2C2228.84 641.2 2208.97 634.667 2194.84 621.6C2180.97 608.533 2174.04 589.333 2174.04 564V475.6H2140.84V427.6H2174.04V375.2H2236.44V427.6H2290.04V475.6H2236.44V563.2C2236.44 572.267 2238.71 579.333 2243.24 584.4C2248.04 589.2 2254.71 591.6 2263.24 591.6C2273.11 591.6 2281.51 588.933 2288.44 583.6L2305.24 627.6ZM2340.27 422.8H2402.67V638H2340.27V422.8ZM2371.47 392.8C2360 392.8 2350.67 389.467 2343.47 382.8C2336.27 376.133 2332.67 367.867 2332.67 358C2332.67 348.133 2336.27 339.867 2343.47 333.2C2350.67 326.533 2360 323.2 2371.47 323.2C2382.94 323.2 2392.27 326.4 2399.47 332.8C2406.67 339.2 2410.27 347.2 2410.27 356.8C2410.27 367.2 2406.67 375.867 2399.47 382.8C2392.27 389.467 2382.94 392.8 2371.47 392.8ZM2591.38 419.6C2618.05 419.6 2639.51 427.6 2655.78 443.6C2672.31 459.6 2680.58 483.333 2680.58 514.8V638H2618.18V524.4C2618.18 507.333 2614.45 494.667 2606.98 486.4C2599.51 477.867 2588.71 473.6 2574.58 473.6C2558.85 473.6 2546.31 478.533 2536.98 488.4C2527.65 498 2522.98 512.4 2522.98 531.6V638H2460.58V422.8H2520.18V448C2528.45 438.933 2538.71 432 2550.98 427.2C2563.25 422.133 2576.71 419.6 2591.38 419.6ZM2961.49 422.8V602C2961.49 641.467 2951.22 670.8 2930.69 690C2910.15 709.2 2880.15 718.8 2840.69 718.8C2819.89 718.8 2800.15 716.267 2781.49 711.2C2762.82 706.133 2747.35 698.8 2735.09 689.2L2759.89 644.4C2768.95 651.867 2780.42 657.733 2794.29 662C2808.15 666.533 2822.02 668.8 2835.89 668.8C2857.49 668.8 2873.35 663.867 2883.49 654C2893.89 644.4 2899.09 629.733 2899.09 610V600.8C2882.82 618.667 2860.15 627.6 2831.09 627.6C2811.35 627.6 2793.22 623.333 2776.69 614.8C2760.42 606 2747.49 593.733 2737.89 578C2728.29 562.267 2723.49 544.133 2723.49 523.6C2723.49 503.067 2728.29 484.933 2737.89 469.2C2747.49 453.467 2760.42 441.333 2776.69 432.8C2793.22 424 2811.35 419.6 2831.09 419.6C2862.29 419.6 2886.02 429.867 2902.29 450.4V422.8H2961.49ZM2843.49 576.4C2860.02 576.4 2873.49 571.6 2883.89 562C2894.55 552.133 2899.89 539.333 2899.89 523.6C2899.89 507.867 2894.55 495.2 2883.89 485.6C2873.49 475.733 2860.02 470.8 2843.49 470.8C2826.95 470.8 2813.35 475.733 2802.69 485.6C2792.02 495.2 2786.69 507.867 2786.69 523.6C2786.69 539.333 2792.02 552.133 2802.69 562C2813.35 571.6 2826.95 576.4 2843.49 576.4Z" fill="black"/>
<path d="M550.084 478.197V575.619H447.018V478.197H144.585C141.753 478.197 139.442 475.9 139.442 473.039V380.858C139.442 373.863 142.211 367.161 147.146 362.213L441.75 67.1684H539.965C545.566 67.1684 550.105 71.7201 550.105 77.3157V369.291H637.181V83.4542C637.181 37.3738 599.931 0 553.957 0H144.314V228.753L305.639 67.1684H409.789L144.314 333.044L129.885 347.493C128.636 348.745 126.616 348.725 125.408 347.451L76.6233 296.527L70.6892 290.325V0.939564C30.6701 7.01541 0 41.6331 0 83.4542V572.842C0 618.922 37.2498 656.296 83.2237 656.296H553.936C599.89 656.296 637.16 618.943 637.16 572.842V478.217H550.084V478.197Z" fill="black"/>
<path d="M446.775 369.208V208.396L286.199 369.208H446.775Z" fill="black"/>
</svg>
